<?xml version="1.0" encoding="utf-8"?>
<!-- Generator: Adobe Illustrator 16.0.3, SVG Export Plug-In . SVG Version: 6.00 Build 0)  -->
<!DOCTYPE svg PUBLIC "-//W3C//DTD SVG 1.1//EN" "http://www.w3.org/Graphics/SVG/1.1/DTD/svg11.dtd">
<svg version="1.1" id="Ebene_1" xmlns="http://www.w3.org/2000/svg" xmlns:xlink="http://www.w3.org/1999/xlink" fill="#b8cbd9" x="0px" y="0px"
	 width="64px" height="64px" viewBox="0 0 64 64" enable-background="new 0 0 64 64" xml:space="preserve">
<path d="M40,19.5c-0.55,0-1-0.45-1-1V13c0-0.55,0.45-1,1-1s1,0.45,1,1v5.5C41,19.05,40.55,19.5,40,19.5z M40,10c-0.55,0-1-0.45-1-1
	s0.45-1,1-1s1,0.45,1,1S40.55,10,40,10z"/>
<path d="M57,27c-0.55,0-1-0.45-1-1s0.45-1,1-1s1,0.45,1,1S57.55,27,57,27z M53,27h-5.5c-0.55,0-1-0.45-1-1s0.45-1,1-1H53
	c0.55,0,1,0.45,1,1S53.55,27,53,27z"/>
<g>
	<path d="M55.12,21c-0.261,0-0.521-0.11-0.71-0.29c-0.181-0.19-0.29-0.45-0.29-0.71s0.109-0.521,0.29-0.71
		c0.37-0.37,1.05-0.37,1.42,0c0.18,0.189,0.29,0.439,0.29,0.71c0,0.26-0.11,0.52-0.29,0.71C55.64,20.89,55.38,21,55.12,21z"/>
	<path d="M51.63,21.359c-0.2-0.51,0.05-1.09,0.56-1.29l0,0c0.521-0.199,1.101,0.051,1.301,0.561l0,0c0.199,0.52-0.051,1.1-0.57,1.3
		l0,0C52.8,21.979,52.68,22,52.56,22l0,0C52.16,22,51.78,21.76,51.63,21.359z"/>
	<path d="M50,23c-0.26,0-0.521-0.101-0.71-0.29C49.109,22.52,49,22.26,49,22s0.109-0.521,0.29-0.71c0.359-0.37,1.05-0.37,1.42,0
		C50.89,21.479,51,21.74,51,22s-0.11,0.52-0.29,0.71C50.52,22.899,50.26,23,50,23z"/>
</g>
<g>
	<path d="M46,12c-0.26,0-0.521-0.11-0.71-0.29C45.109,11.52,45,11.26,45,11s0.109-0.521,0.29-0.71c0.38-0.37,1.04-0.37,1.42,0
		C46.89,10.479,47,10.74,47,11s-0.11,0.52-0.29,0.71C46.52,11.89,46.26,12,46,12z"/>
	<path d="M44.63,14.43c-0.521-0.21-0.76-0.79-0.561-1.3l0,0c0.211-0.51,0.79-0.76,1.301-0.561l0,0c0.51,0.211,0.76,0.79,0.56,1.301
		l0,0c-0.16,0.39-0.53,0.63-0.93,0.63l0,0C44.88,14.5,44.75,14.479,44.63,14.43z"/>
	<path d="M44,17c-0.26,0-0.521-0.11-0.71-0.29C43.109,16.52,43,16.26,43,16s0.1-0.521,0.29-0.71c0.38-0.37,1.05-0.37,1.42,0
		C44.89,15.479,45,15.74,45,16s-0.11,0.52-0.29,0.71C44.52,16.89,44.26,17,44,17z"/>
</g>
<g>
	<path d="M50.939,16.061c-0.256,0-0.512-0.098-0.707-0.293c-0.391-0.391-0.391-1.023,0-1.414l1.061-1.061
		c0.391-0.391,1.023-0.391,1.414,0s0.391,1.023,0,1.414l-1.061,1.061C51.451,15.963,51.195,16.061,50.939,16.061z"/>
	<path d="M47.937,19.063c-0.256,0-0.512-0.098-0.707-0.293c-0.391-0.391-0.391-1.023,0-1.414l1.126-1.126
		c0.391-0.391,1.023-0.391,1.414,0s0.391,1.023,0,1.414l-1.126,1.126C48.448,18.966,48.192,19.063,47.937,19.063z"/>
	<path d="M45,22c-0.256,0-0.512-0.098-0.707-0.293c-0.391-0.391-0.391-1.023,0-1.414l1.061-1.061c0.391-0.391,1.023-0.391,1.414,0
		s0.391,1.023,0,1.414l-1.061,1.061C45.512,21.902,45.256,22,45,22z"/>
</g>
<path d="M40,44c-0.55,0-1-0.45-1-1s0.45-1,1-1s1,0.45,1,1S40.55,44,40,44z M40,40c-0.55,0-1-0.45-1-1v-5.5c0-0.55,0.45-1,1-1
	s1,0.45,1,1V39C41,39.55,40.55,40,40,40z"/>
<g>
	<path d="M46,42.12c-0.26,0-0.521-0.11-0.7-0.29c-0.19-0.19-0.3-0.45-0.3-0.71c0-0.271,0.109-0.53,0.3-0.71
		c0.37-0.37,1.04-0.37,1.41,0C46.899,40.6,47,40.85,47,41.12c0,0.26-0.101,0.52-0.29,0.71C46.52,42.01,46.26,42.12,46,42.12z"/>
	<path d="M44.069,38.93c-0.199-0.52,0.051-1.1,0.57-1.3l0,0c0.51-0.2,1.09,0.05,1.29,0.56l0,0c0.2,0.521-0.05,1.101-0.57,1.301l0,0
		C45.25,39.54,45.12,39.56,45,39.56l0,0C44.6,39.56,44.22,39.319,44.069,38.93z"/>
	<path d="M44,37c-0.26,0-0.521-0.11-0.71-0.29C43.109,36.52,43,36.26,43,36s0.109-0.521,0.29-0.71c0.37-0.37,1.05-0.37,1.42,0
		C44.89,35.479,45,35.74,45,36s-0.11,0.52-0.29,0.71C44.52,36.89,44.26,37,44,37z"/>
</g>
<g>
	<path d="M55,33c-0.271,0-0.521-0.11-0.71-0.29C54.109,32.52,54,32.26,54,32s0.109-0.521,0.29-0.71c0.359-0.37,1.05-0.37,1.42,0
		C55.89,31.479,56,31.74,56,32s-0.11,0.52-0.29,0.71C55.52,32.89,55.26,33,55,33z"/>
	<path d="M52.13,31.93c-0.521-0.21-0.76-0.79-0.561-1.3l0,0c0.211-0.521,0.79-0.771,1.301-0.561l0,0
		c0.51,0.211,0.76,0.79,0.56,1.301l0,0C53.27,31.76,52.899,32,52.5,32l0,0C52.38,32,52.25,31.979,52.13,31.93z"/>
	<path d="M50,31c-0.26,0-0.521-0.11-0.71-0.29C49.109,30.52,49,30.26,49,30c0-0.271,0.109-0.53,0.29-0.71
		c0.37-0.37,1.05-0.37,1.42,0C50.89,29.479,51,29.729,51,30c0,0.26-0.11,0.52-0.29,0.71C50.52,30.899,50.26,31,50,31z"/>
</g>
<g>
	<path d="M52,39c-0.256,0-0.512-0.098-0.707-0.293l-1.061-1.061c-0.391-0.391-0.391-1.023,0-1.414s1.023-0.391,1.414,0l1.061,1.061
		c0.391,0.391,0.391,1.023,0,1.414C52.512,38.902,52.256,39,52,39z"/>
	<path d="M49.063,36.063c-0.256,0-0.512-0.098-0.707-0.293l-1.126-1.126c-0.391-0.391-0.391-1.023,0-1.414s1.023-0.391,1.414,0
		l1.126,1.126c0.391,0.391,0.391,1.023,0,1.414C49.574,35.965,49.318,36.063,49.063,36.063z"/>
	<path d="M46.061,33.061c-0.256,0-0.512-0.098-0.707-0.293l-1.061-1.061c-0.391-0.391-0.391-1.023,0-1.414s1.023-0.391,1.414,0
		l1.061,1.061c0.391,0.391,0.391,1.023,0,1.414C46.572,32.963,46.316,33.061,46.061,33.061z"/>
</g>
<path d="M32.5,27H27c-0.55,0-1-0.45-1-1s0.45-1,1-1h5.5c0.55,0,1,0.45,1,1S33.05,27,32.5,27z M23,27c-0.55,0-1-0.45-1-1s0.45-1,1-1
	c0.55,0,1,0.45,1,1S23.55,27,23,27z"/>
<g>
	<path d="M24.88,33c-0.26,0-0.52-0.101-0.71-0.29c-0.18-0.19-0.29-0.45-0.29-0.71s0.11-0.521,0.29-0.7
		c0.37-0.37,1.05-0.38,1.42-0.01c0.18,0.189,0.29,0.45,0.29,0.71c0,0.27-0.11,0.52-0.29,0.71C25.4,32.899,25.14,33,24.88,33z"/>
	<path d="M26.51,31.359c-0.2-0.51,0.05-1.09,0.57-1.29l0,0c0.51-0.199,1.09,0.051,1.29,0.57l0,0c0.2,0.51-0.05,1.09-0.57,1.29l0,0
		c-0.11,0.05-0.24,0.07-0.36,0.07l0,0C27.04,32,26.66,31.76,26.51,31.359z"/>
	<path d="M30,31c-0.26,0-0.52-0.101-0.71-0.29C29.11,30.52,29,30.26,29,30c0-0.271,0.11-0.521,0.29-0.71c0.37-0.37,1.05-0.37,1.42,0
		C30.89,29.479,31,29.729,31,30c0,0.26-0.11,0.52-0.29,0.71C30.52,30.899,30.26,31,30,31z"/>
</g>
<g>
	<path d="M34,42c-0.26,0-0.52-0.11-0.71-0.29C33.11,41.52,33,41.26,33,41s0.11-0.521,0.29-0.71c0.38-0.37,1.05-0.37,1.42,0
		C34.89,40.479,35,40.729,35,41c0,0.26-0.11,0.52-0.29,0.71C34.52,41.89,34.26,42,34,42z"/>
	<path d="M34.63,39.43c-0.51-0.21-0.76-0.79-0.56-1.3l0,0c0.21-0.521,0.79-0.76,1.3-0.561l0,0c0.51,0.211,0.76,0.79,0.56,1.301l0,0
		C35.77,39.26,35.4,39.5,35,39.5l0,0C34.88,39.5,34.75,39.479,34.63,39.43z"/>
	<path d="M36,37c-0.26,0-0.52-0.11-0.71-0.29C35.11,36.52,35,36.26,35,36s0.11-0.521,0.29-0.71c0.38-0.37,1.05-0.37,1.42,0
		C36.89,35.479,37,35.74,37,36s-0.11,0.52-0.29,0.71C36.52,36.89,36.26,37,36,37z"/>
</g>
<g>
	<path d="M28,39c-0.256,0-0.512-0.098-0.707-0.293c-0.391-0.391-0.391-1.023,0-1.414l1.061-1.061c0.391-0.391,1.023-0.391,1.414,0
		s0.391,1.023,0,1.414l-1.061,1.061C28.512,38.902,28.256,39,28,39z"/>
	<path d="M30.937,36.063c-0.256,0-0.512-0.098-0.707-0.293c-0.391-0.391-0.391-1.023,0-1.414l1.126-1.126
		c0.391-0.391,1.023-0.391,1.414,0s0.391,1.023,0,1.414l-1.126,1.126C31.449,35.965,31.193,36.063,30.937,36.063z"/>
	<path d="M33.939,33.061c-0.256,0-0.512-0.098-0.707-0.293c-0.391-0.391-0.391-1.023,0-1.414l1.061-1.061
		c0.391-0.391,1.023-0.391,1.414,0s0.391,1.023,0,1.414l-1.061,1.061C34.451,32.963,34.195,33.061,33.939,33.061z"/>
</g>
<g>
	<path d="M34,11.88c-0.26,0-0.52-0.11-0.71-0.29c-0.19-0.19-0.29-0.44-0.29-0.71c0-0.26,0.1-0.521,0.29-0.71
		c0.37-0.37,1.04-0.37,1.42,0c0.18,0.189,0.29,0.45,0.29,0.71c0,0.27-0.11,0.52-0.3,0.71C34.52,11.77,34.26,11.88,34,11.88z"/>
	<path d="M34.07,13.8c-0.2-0.51,0.05-1.09,0.57-1.29l0,0c0.51-0.2,1.09,0.05,1.29,0.57l0,0c0.2,0.51-0.05,1.09-0.57,1.29l0,0
		c-0.12,0.05-0.24,0.069-0.36,0.069l0,0C34.6,14.439,34.22,14.2,34.07,13.8z"/>
	<path d="M36,17c-0.26,0-0.52-0.11-0.71-0.29C35.11,16.52,35,16.26,35,16s0.11-0.521,0.29-0.71c0.38-0.37,1.04-0.37,1.42,0
		C36.89,15.479,37,15.74,37,16s-0.11,0.52-0.29,0.71C36.52,16.89,36.26,17,36,17z"/>
</g>
<g>
	<path d="M25,21c-0.26,0-0.52-0.11-0.71-0.29C24.11,20.52,24,20.26,24,20s0.11-0.521,0.29-0.71c0.38-0.37,1.05-0.37,1.42,0
		C25.89,19.479,26,19.74,26,20s-0.11,0.52-0.29,0.71C25.52,20.89,25.26,21,25,21z"/>
	<path d="M27.13,21.93c-0.51-0.21-0.76-0.79-0.56-1.3l0,0c0.21-0.521,0.79-0.76,1.3-0.561l0,0c0.51,0.211,0.76,0.79,0.56,1.301l0,0
		C28.27,21.76,27.9,22,27.5,22l0,0C27.38,22,27.25,21.979,27.13,21.93z"/>
	<path d="M30,23c-0.26,0-0.52-0.101-0.71-0.29C29.11,22.52,29,22.26,29,22s0.11-0.521,0.29-0.71c0.37-0.37,1.05-0.37,1.42,0
		C30.89,21.479,31,21.74,31,22s-0.11,0.52-0.29,0.71C30.52,22.899,30.26,23,30,23z"/>
</g>
<g>
	<path d="M29.061,16.061c-0.256,0-0.512-0.098-0.707-0.293l-1.061-1.061c-0.391-0.391-0.391-1.023,0-1.414s1.023-0.391,1.414,0
		l1.061,1.061c0.391,0.391,0.391,1.023,0,1.414C29.572,15.963,29.316,16.061,29.061,16.061z"/>
	<path d="M32.063,19.063c-0.256,0-0.512-0.098-0.707-0.293l-1.126-1.126c-0.391-0.391-0.391-1.023,0-1.414s1.023-0.391,1.414,0
		l1.126,1.126c0.391,0.391,0.391,1.023,0,1.414C32.575,18.966,32.319,19.063,32.063,19.063z"/>
	<path d="M35,22c-0.256,0-0.512-0.098-0.707-0.293l-1.061-1.061c-0.391-0.391-0.391-1.023,0-1.414s1.023-0.391,1.414,0l1.061,1.061
		c0.391,0.391,0.391,1.023,0,1.414C35.512,21.902,35.256,22,35,22z"/>
</g>
<g>
	<path d="M16,40.458c-0.552,0-1-0.447-1-1V34c0-0.553,0.448-1,1-1s1,0.447,1,1v5.458C17,40.011,16.552,40.458,16,40.458z"/>
	<path d="M16,55c-0.552,0-1-0.447-1-1v-5.458c0-0.553,0.448-1,1-1s1,0.447,1,1V54C17,54.553,16.552,55,16,55z"/>
	<path d="M11.455,45H6c-0.552,0-1-0.447-1-1s0.448-1,1-1h5.455c0.552,0,1,0.447,1,1S12.007,45,11.455,45z"/>
	<path d="M26,45h-5.455c-0.552,0-1-0.447-1-1s0.448-1,1-1H26c0.552,0,1,0.447,1,1S26.552,45,26,45z"/>
	<path d="M11.467,40.451c-0.256,0-0.512-0.098-0.708-0.293L8.19,37.586c-0.39-0.391-0.39-1.024,0.001-1.414
		c0.39-0.391,1.023-0.391,1.414,0l2.569,2.572c0.39,0.391,0.39,1.024-0.001,1.414C11.979,40.354,11.723,40.451,11.467,40.451z"/>
	<path d="M23.038,52.023c-0.256,0-0.512-0.098-0.708-0.293l-2.569-2.572c-0.39-0.391-0.39-1.024,0.001-1.414
		c0.39-0.392,1.024-0.39,1.414,0l2.569,2.572c0.39,0.391,0.39,1.024-0.001,1.414C23.55,51.926,23.294,52.023,23.038,52.023z"/>
	<path d="M8.896,52.022c-0.256,0-0.511-0.098-0.707-0.293c-0.391-0.39-0.391-1.023-0.001-1.414l2.57-2.573
		c0.39-0.391,1.023-0.392,1.414,0c0.391,0.39,0.391,1.023,0.001,1.414l-2.57,2.573C9.408,51.925,9.152,52.022,8.896,52.022z"/>
	<path d="M20.469,40.454c-0.256,0-0.511-0.098-0.707-0.292c-0.391-0.391-0.391-1.023-0.001-1.415l2.57-2.574
		c0.39-0.391,1.022-0.391,1.414-0.001c0.391,0.391,0.391,1.023,0.001,1.415l-2.57,2.574C20.981,40.356,20.726,40.454,20.469,40.454z
		"/>
</g>
</svg>
