<?xml version="1.0" encoding="utf-8"?>
<!-- Generator: Adobe Illustrator 16.0.3, SVG Export Plug-In . SVG Version: 6.00 Build 0)  -->
<!DOCTYPE svg PUBLIC "-//W3C//DTD SVG 1.1//EN" "http://www.w3.org/Graphics/SVG/1.1/DTD/svg11.dtd">
<svg version="1.1" id="Ebene_1" xmlns="http://www.w3.org/2000/svg" xmlns:xlink="http://www.w3.org/1999/xlink" fill="#b8cbd9" x="0px" y="0px"
	 width="64px" height="64px" viewBox="0 0 64 64" enable-background="new 0 0 64 64" xml:space="preserve">
<path d="M54,50H29c-0.552,0-1-0.448-1-1s0.448-1,1-1h24V6H30v30c0,0.552-0.448,1-1,1s-1-0.448-1-1V5c0-0.552,0.448-1,1-1h25
	c0.552,0,1,0.448,1,1v44C55,49.552,54.552,50,54,50z"/>
<g>
	<g>
		<path d="M49,14c-0.552,0-1-0.448-1-1v-2c0-0.552,0.448-1,1-1s1,0.448,1,1v2C50,13.552,49.552,14,49,14z"/>
		<path d="M44,14c-0.552,0-1-0.448-1-1v-2c0-0.552,0.448-1,1-1s1,0.448,1,1v2C45,13.552,44.552,14,44,14z"/>
		<path d="M39,14c-0.552,0-1-0.448-1-1v-2c0-0.552,0.448-1,1-1s1,0.448,1,1v2C40,13.552,39.552,14,39,14z"/>
		<path d="M34,14c-0.552,0-1-0.448-1-1v-2c0-0.552,0.448-1,1-1s1,0.448,1,1v2C35,13.552,34.552,14,34,14z"/>
	</g>
	<g>
		<path d="M49,20c-0.552,0-1-0.448-1-1v-2c0-0.552,0.448-1,1-1s1,0.448,1,1v2C50,19.552,49.552,20,49,20z"/>
		<path d="M44,20c-0.552,0-1-0.448-1-1v-2c0-0.552,0.448-1,1-1s1,0.448,1,1v2C45,19.552,44.552,20,44,20z"/>
		<path d="M39,20c-0.552,0-1-0.448-1-1v-2c0-0.552,0.448-1,1-1s1,0.448,1,1v2C40,19.552,39.552,20,39,20z"/>
		<path d="M34,20c-0.552,0-1-0.448-1-1v-2c0-0.552,0.448-1,1-1s1,0.448,1,1v2C35,19.552,34.552,20,34,20z"/>
	</g>
	<g>
		<path d="M49,26c-0.552,0-1-0.448-1-1v-2c0-0.552,0.448-1,1-1s1,0.448,1,1v2C50,25.552,49.552,26,49,26z"/>
		<path d="M44,26c-0.552,0-1-0.448-1-1v-2c0-0.552,0.448-1,1-1s1,0.448,1,1v2C45,25.552,44.552,26,44,26z"/>
		<path d="M39,26c-0.552,0-1-0.448-1-1v-2c0-0.552,0.448-1,1-1s1,0.448,1,1v2C40,25.552,39.552,26,39,26z"/>
		<path d="M34,26c-0.552,0-1-0.448-1-1v-2c0-0.552,0.448-1,1-1s1,0.448,1,1v2C35,25.552,34.552,26,34,26z"/>
	</g>
	<g>
		<path d="M49,32c-0.552,0-1-0.448-1-1v-2c0-0.552,0.448-1,1-1s1,0.448,1,1v2C50,31.552,49.552,32,49,32z"/>
		<path d="M44,32c-0.552,0-1-0.448-1-1v-2c0-0.552,0.448-1,1-1s1,0.448,1,1v2C45,31.552,44.552,32,44,32z"/>
		<path d="M39,32c-0.552,0-1-0.448-1-1v-2c0-0.552,0.448-1,1-1s1,0.448,1,1v2C40,31.552,39.552,32,39,32z"/>
		<path d="M34,32c-0.552,0-1-0.448-1-1v-2c0-0.552,0.448-1,1-1s1,0.448,1,1v2C35,31.552,34.552,32,34,32z"/>
	</g>
	<g>
		<path d="M49,38c-0.552,0-1-0.448-1-1v-2c0-0.552,0.448-1,1-1s1,0.448,1,1v2C50,37.552,49.552,38,49,38z"/>
		<path d="M44,38c-0.552,0-1-0.448-1-1v-2c0-0.552,0.448-1,1-1s1,0.448,1,1v2C45,37.552,44.552,38,44,38z"/>
		<path d="M39,38c-0.552,0-1-0.448-1-1v-2c0-0.552,0.448-1,1-1s1,0.448,1,1v2C40,37.552,39.552,38,39,38z"/>
		<path d="M34,38c-0.552,0-1-0.448-1-1v-2c0-0.552,0.448-1,1-1s1,0.448,1,1v2C35,37.552,34.552,38,34,38z"/>
	</g>
	<g>
		<path d="M49,44c-0.552,0-1-0.448-1-1v-2c0-0.552,0.448-1,1-1s1,0.448,1,1v2C50,43.552,49.552,44,49,44z"/>
		<path d="M44,44c-0.552,0-1-0.448-1-1v-2c0-0.552,0.448-1,1-1s1,0.448,1,1v2C45,43.552,44.552,44,44,44z"/>
		<path d="M39,44c-0.552,0-1-0.448-1-1v-2c0-0.552,0.448-1,1-1s1,0.448,1,1v2C40,43.552,39.552,44,39,44z"/>
		<path d="M34,44c-0.552,0-1-0.448-1-1v-2c0-0.552,0.448-1,1-1s1,0.448,1,1v2C35,43.552,34.552,44,34,44z"/>
	</g>
</g>
<path d="M29,60H9c-0.552,0-1-0.448-1-1V42H6c-0.552,0-1-0.448-1-1v-1.942c0-0.293,0.129-0.572,0.352-0.762l3.637-3.094V29
	c0-0.552,0.448-1,1-1h4c0.552,0,1,0.448,1,1v1.099l3.363-2.86c0.373-0.317,0.922-0.317,1.296,0l13,11.058
	C32.871,38.486,33,38.765,33,39.058V41c0,0.552-0.448,1-1,1h-2v17C30,59.552,29.552,60,29,60z M10,58h18V41c0-0.552,0.448-1,1-1h2
	v-0.479L19,29.313l-4.363,3.711c-0.297,0.252-0.715,0.309-1.067,0.146c-0.354-0.164-0.581-0.518-0.581-0.908V30h-2v5.665
	c0,0.293-0.129,0.572-0.352,0.762L7,39.521V40h2c0.552,0,1,0.448,1,1V58z"/>
<path d="M24,47c-0.552,0-1-0.448-1-1v-2c0-0.552,0.448-1,1-1s1,0.448,1,1v2C25,46.552,24.552,47,24,47z"/>
<path d="M17,47c-0.552,0-1-0.448-1-1v-2c0-0.552,0.448-1,1-1s1,0.448,1,1v2C18,46.552,17.552,47,17,47z"/>
<path d="M13,47c-0.552,0-1-0.448-1-1v-2c0-0.552,0.448-1,1-1s1,0.448,1,1v2C14,46.552,13.552,47,13,47z"/>
<path d="M56,60H29c-0.552,0-1-0.448-1-1V49c0-0.552,0.448-1,1-1h27c0.552,0,1,0.448,1,1v10C57,59.552,56.552,60,56,60z M30,58h25v-8
	H30V58z"/>
<path d="M44,60h-5c-0.552,0-1-0.448-1-1v-6c0-0.552,0.448-1,1-1h5c0.552,0,1,0.448,1,1v6C45,59.552,44.552,60,44,60z M40,58h3v-4h-3
	V58z"/>
<path d="M24,60h-4c-0.552,0-1-0.448-1-1v-6c0-0.552,0.448-1,1-1h4c0.552,0,1,0.448,1,1v6C25,59.552,24.552,60,24,60z M21,58h2v-4h-2
	V58z"/>
<path d="M55.417,55h-8c-0.552,0-1-0.448-1-1s0.448-1,1-1h8c0.552,0,1,0.448,1,1S55.969,55,55.417,55z"/>
<path d="M35.5,55h-5.833c-0.552,0-1-0.448-1-1s0.448-1,1-1H35.5c0.552,0,1,0.448,1,1S36.052,55,35.5,55z"/>
</svg>
