<?xml version="1.0" encoding="utf-8"?>
<!-- Generator: Adobe Illustrator 16.0.3, SVG Export Plug-In . SVG Version: 6.00 Build 0)  -->
<!DOCTYPE svg PUBLIC "-//W3C//DTD SVG 1.1//EN" "http://www.w3.org/Graphics/SVG/1.1/DTD/svg11.dtd">
<svg version="1.1" id="Ebene_1" xmlns="http://www.w3.org/2000/svg" xmlns:xlink="http://www.w3.org/1999/xlink" x="0px" y="0px"
	 width="64px" height="64px" viewBox="0 0 64 64" enable-background="new 0 0 64 64" xml:space="preserve">
<path fill="none" stroke="#000000" stroke-width="2" stroke-linecap="round" stroke-linejoin="round" d="M51.423,15.909
	c-3.516-3.515-8.792-3.936-11.788-0.941c-2.088,2.088-2.51,5.286-1.386,8.222C36.485,22.427,34.544,22,32.5,22
	c-2.123,0-4.134,0.467-5.951,1.287c0.726-2.672,0.19-5.443-1.685-7.319c-2.996-2.995-8.272-2.574-11.788,0.941
	c-3.515,3.515-3.936,8.792-0.941,11.787c1.854,1.853,4.58,2.395,7.222,1.709C18.495,32.26,18,34.32,18,36.5
	C18,44.508,24.492,51,32.5,51S47,44.508,47,36.5c0-2.58-0.681-4.998-1.862-7.096c2.644,0.688,5.372,0.146,7.227-1.708
	C55.358,24.701,54.938,19.424,51.423,15.909z"/>
<line fill="none" stroke="#000000" stroke-width="2" stroke-linecap="round" stroke-linejoin="round" x1="35" y1="33.821" x2="35" y2="39"/>
<line fill="none" stroke="#000000" stroke-width="2" stroke-linecap="round" stroke-linejoin="round" x1="30" y1="33.821" x2="30" y2="39"/>
<path fill="none" stroke="#000000" stroke-width="2" stroke-linecap="round" stroke-linejoin="round" stroke-miterlimit="10" d="
	M32.5,31.139"/>
<path fill="none" stroke="#000000" stroke-width="2" stroke-linecap="round" stroke-linejoin="round" stroke-miterlimit="10" d="
	M32.5,31.275c0-2.347-1.902-4.25-4.25-4.25l0,0c-2.348,0-4.25,1.903-4.25,4.25V38h-2.125h0.5C20.511,38,19,39.512,19,41.375l0,0"/>
<path fill="none" stroke="#000000" stroke-width="2" stroke-linecap="round" stroke-linejoin="round" stroke-miterlimit="10" d="
	M32.5,31.275c0-2.347,1.902-4.25,4.25-4.25l0,0c2.348,0,4.25,1.903,4.25,4.25V38h1.125h0.5C44.489,38,46,39.512,46,41.375l0,0"/>
<path fill="none" stroke="#000000" stroke-width="2" stroke-linecap="round" stroke-linejoin="round" d="M30,43.5
	c0,0.828,0.672,1.5,1.5,1.5h2c0.828,0,1.5-0.672,1.5-1.5l0,0c0-0.828-0.672-1.5-1.5-1.5h-2C30.672,42,30,42.672,30,43.5L30,43.5z"/>
</svg>
