<?xml version="1.0" encoding="utf-8"?>
<!-- Generator: Adobe Illustrator 16.0.3, SVG Export Plug-In . SVG Version: 6.00 Build 0)  -->
<!DOCTYPE svg PUBLIC "-//W3C//DTD SVG 1.1//EN" "http://www.w3.org/Graphics/SVG/1.1/DTD/svg11.dtd">
<svg version="1.1" id="Ebene_1" xmlns="http://www.w3.org/2000/svg" xmlns:xlink="http://www.w3.org/1999/xlink" fill="#b8cbd9" x="0px" y="0px"
	 width="64px" height="64px" viewBox="0 0 64 64" enable-background="new 0 0 64 64" xml:space="preserve">
<path d="M40,57c-0.553,0-1-0.448-1-1V21c0-0.552,0.447-1,1-1s1,0.448,1,1v35C41,56.552,40.553,57,40,57z"/>
<path d="M51,51H29c-0.314,0-0.61-0.148-0.8-0.399c-0.188-0.251-0.248-0.578-0.16-0.879l1.667-5.738
	c0.153-0.53,0.702-0.837,1.239-0.682c0.53,0.154,0.835,0.709,0.681,1.239L30.332,49h19.336l-6.6-22.721
	c-0.088-0.302-0.028-0.628,0.16-0.879c0.189-0.251,0.485-0.399,0.8-0.399h2.062l-6.088-14.428L33.911,25h2.061
	c0.314,0,0.61,0.148,0.8,0.399c0.188,0.251,0.248,0.577,0.16,0.879l-1.307,4.5c-0.154,0.53-0.702,0.833-1.239,0.682
	c-0.53-0.154-0.835-0.709-0.681-1.239L34.64,27h-2.236c-0.335,0-0.648-0.168-0.833-0.447c-0.186-0.279-0.219-0.633-0.088-0.941
	l7.599-18C39.237,7.241,39.6,7,40.002,7l0,0c0.402,0,0.765,0.241,0.921,0.611l7.595,18c0.131,0.309,0.098,0.662-0.088,0.941
	C48.245,26.832,47.932,27,47.597,27H45.36l6.6,22.721c0.088,0.302,0.028,0.628-0.16,0.879C51.61,50.852,51.314,51,51,51z"/>
<g>
	<path d="M28.916,45H14.418C9.854,45,6,41.271,6,36.858v-1.786c0-3.009,1.862-5.847,4.698-7.256v-1.671
		c0-4.491,3.701-8.144,8.251-8.144h5.436c4.55,0,8.251,3.653,8.251,8.144v1.675C35.308,29.176,37,31.952,37,35.072v1.786
		C37,41.348,33.374,45,28.916,45z M18.949,20c-3.447,0-6.251,2.756-6.251,6.144v2.318c0,0.408-0.248,0.775-0.626,0.928
		C9.637,30.371,8,32.654,8,35.072v1.786C8,40.188,10.939,43,14.418,43h14.498C32.327,43,35,40.302,35,36.858v-1.786
		c0-2.537-1.467-4.767-3.738-5.682c-0.378-0.153-0.626-0.52-0.626-0.928v-2.318c0-3.388-2.804-6.144-6.251-6.144H18.949z"/>
	<path d="M22,57c-0.553,0-1-0.448-1-1V25c0-0.552,0.447-1,1-1s1,0.448,1,1v31C23,56.552,22.553,57,22,57z"/>
	<path d="M21.665,32.499c-0.256,0-0.512-0.098-0.707-0.293l-4.428-4.431c-0.391-0.391-0.391-1.024,0-1.415
		c0.391-0.39,1.023-0.39,1.414,0l4.428,4.431c0.391,0.391,0.391,1.024,0,1.415C22.177,32.401,21.921,32.499,21.665,32.499z"/>
	<path d="M22.16,39.79c-0.256,0-0.512-0.098-0.707-0.292c-0.391-0.391-0.391-1.024,0-1.415l7.291-7.296
		c0.391-0.391,1.023-0.39,1.414,0c0.391,0.391,0.391,1.024,0,1.415l-7.291,7.296C22.672,39.692,22.416,39.79,22.16,39.79z"/>
</g>
</svg>
