<?xml version="1.0" encoding="utf-8"?>
<!-- Generator: Adobe Illustrator 16.0.3, SVG Export Plug-In . SVG Version: 6.00 Build 0)  -->
<!DOCTYPE svg PUBLIC "-//W3C//DTD SVG 1.1//EN" "http://www.w3.org/Graphics/SVG/1.1/DTD/svg11.dtd">
<svg version="1.1" id="Ebene_1" xmlns="http://www.w3.org/2000/svg" xmlns:xlink="http://www.w3.org/1999/xlink" fill="#b8cbd9" x="0px" y="0px"
	 width="64px" height="64px" viewBox="0 0 64 64" enable-background="new 0 0 64 64" xml:space="preserve">
<g>
	<path d="M57,50H7c-0.552,0-1-0.447-1-1V38c0-0.553,0.448-1,1-1h50c0.552,0,1,0.447,1,1v11C58,49.553,57.552,50,57,50z M8,48h48v-9
		H8V48z"/>
	<path d="M32,44c-0.552,0-1-0.447-1-1v-4c0-0.553,0.448-1,1-1s1,0.447,1,1v4C33,43.553,32.552,44,32,44z"/>
	<path d="M52,44c-0.552,0-1-0.447-1-1v-4c0-0.553,0.448-1,1-1s1,0.447,1,1v4C53,43.553,52.552,44,52,44z"/>
	<path d="M47,42.333c-0.552,0-1-0.447-1-1v-2.5c0-0.553,0.448-1,1-1s1,0.447,1,1v2.5C48,41.886,47.552,42.333,47,42.333z"/>
	<path d="M42,42.333c-0.552,0-1-0.447-1-1v-2.5c0-0.553,0.448-1,1-1s1,0.447,1,1v2.5C43,41.886,42.552,42.333,42,42.333z"/>
	<path d="M37,42.333c-0.552,0-1-0.447-1-1v-2.5c0-0.553,0.448-1,1-1s1,0.447,1,1v2.5C38,41.886,37.552,42.333,37,42.333z"/>
	<path d="M27,42.333c-0.552,0-1-0.447-1-1v-2.5c0-0.553,0.448-1,1-1s1,0.447,1,1v2.5C28,41.886,27.552,42.333,27,42.333z"/>
	<path d="M22,42.333c-0.552,0-1-0.447-1-1v-2.5c0-0.553,0.448-1,1-1s1,0.447,1,1v2.5C23,41.886,22.552,42.333,22,42.333z"/>
	<path d="M17,42.333c-0.552,0-1-0.447-1-1v-2.5c0-0.553,0.448-1,1-1s1,0.447,1,1v2.5C18,41.886,17.552,42.333,17,42.333z"/>
	<path d="M12,44c-0.552,0-1-0.447-1-1v-4c0-0.553,0.448-1,1-1s1,0.447,1,1v4C13,43.553,12.552,44,12,44z"/>
</g>
<path d="M53,35c-0.293,0-0.584-0.128-0.781-0.375l-4.57-5.713c-0.345-0.432-0.275-1.061,0.156-1.406
	c0.43-0.345,1.061-0.275,1.405,0.156l4.57,5.713c0.345,0.432,0.275,1.061-0.156,1.406C53.44,34.929,53.22,35,53,35z"/>
<path d="M34.999,28c-0.208,0-0.419-0.065-0.599-0.2c-0.442-0.331-0.531-0.958-0.2-1.399l6-8c0.186-0.248,0.475-0.396,0.784-0.4
	c0.298,0,0.604,0.134,0.797,0.376l1.409,1.762c0.345,0.431,0.274,1.061-0.157,1.405c-0.432,0.345-1.06,0.273-1.406-0.157
	l-0.602-0.753L35.8,27.6C35.604,27.862,35.303,28,34.999,28z"/>
<path d="M39.001,34c-0.313,0-0.621-0.146-0.815-0.42l-12.72-17.861L12.813,33.343c-0.322,0.448-0.947,0.552-1.396,0.229
	s-0.551-0.947-0.229-1.396l13.469-18.76C24.844,13.155,25.146,13,25.469,13c0,0,0.001,0,0.002,0c0.323,0.001,0.625,0.157,0.813,0.42
	l13.531,19c0.32,0.45,0.215,1.074-0.234,1.395C39.404,33.939,39.202,34,39.001,34z"/>
<path d="M25.5,25c-0.002,0-0.005,0-0.007,0c-0.326-0.002-0.631-0.164-0.816-0.433l-3.446-5c-0.313-0.455-0.199-1.077,0.256-1.391
	c0.455-0.313,1.077-0.198,1.391,0.256l2.636,3.823l2.726-3.835c0.32-0.449,0.943-0.557,1.394-0.236
	c0.45,0.32,0.556,0.944,0.236,1.395l-3.554,5C26.127,24.844,25.824,25,25.5,25z"/>
<g>
	<path d="M46,29c-2.757,0-5-2.243-5-5s2.243-5,5-5s5,2.243,5,5S48.757,29,46,29z M46,21c-1.654,0-3,1.346-3,3s1.346,3,3,3
		s3-1.346,3-3S47.654,21,46,21z"/>
	<path d="M46.001,33.573c-0.552,0-1-0.447-1-1V24c0-0.553,0.448-1,1-1s1,0.447,1,1v8.573C47.001,33.126,46.553,33.573,46.001,33.573
		z"/>
</g>
<path d="M57,36c-4.285,0-6.461-0.522-8.566-1.027C46.351,34.473,44.383,34,40.335,34c-4.049,0-6.017,0.473-8.101,0.973
	C30.129,35.478,27.953,36,23.667,36s-6.462-0.522-8.567-1.027C13.017,34.473,11.049,34,7,34c-0.552,0-1-0.447-1-1s0.448-1,1-1
	c4.285,0,6.462,0.522,8.567,1.027c2.083,0.5,4.052,0.973,8.1,0.973s6.017-0.473,8.1-0.973C33.873,32.522,36.05,32,40.335,32
	c4.285,0,6.461,0.522,8.566,1.027C50.984,33.527,52.952,34,57,34c0.552,0,1,0.447,1,1S57.552,36,57,36z"/>
</svg>
