<?xml version="1.0" encoding="utf-8"?>
<!-- Generator: Adobe Illustrator 16.0.3, SVG Export Plug-In . SVG Version: 6.00 Build 0)  -->
<!DOCTYPE svg PUBLIC "-//W3C//DTD SVG 1.1//EN" "http://www.w3.org/Graphics/SVG/1.1/DTD/svg11.dtd">
<svg version="1.1" id="Ebene_1" xmlns="http://www.w3.org/2000/svg" xmlns:xlink="http://www.w3.org/1999/xlink" x="0px" y="0px"
	 width="64px" height="64px" viewBox="0 0 64 64" enable-background="new 0 0 64 64" xml:space="preserve">
<line fill="none" stroke="#000000" stroke-width="2" stroke-linecap="round" stroke-linejoin="round" x1="28.069" y1="54" x2="28.069" y2="28"/>
<path fill="none" stroke="#000000" stroke-width="2" stroke-linecap="round" stroke-linejoin="round" d="M40.154,24.01
	c0.643-0.259,1.418-0.445,2.534-0.445c3.655,0,3.655,2,7.312,2"/>
<line fill="none" stroke="#000000" stroke-width="2" stroke-linecap="round" stroke-linejoin="round" x1="18.069" y1="54" x2="18.069" y2="10"/>
<path fill="none" stroke="#000000" stroke-width="2" stroke-linecap="round" stroke-linejoin="round" d="M40,27.565
	c-3.656,0-3.656-2-7.312-2c-3.656,0-3.656,2-7.313,2c-3.653,0-3.653-2-7.307-2v-14c3.653,0,3.653,2,7.307,2c3.656,0,3.656-2,7.313-2
	c3.655,0,3.655,2,7.312,2V27.565z"/>
<path fill="none" stroke="#000000" stroke-width="2" stroke-linecap="round" stroke-linejoin="round" d="M42.688,16.565
	c-1.209,0-2.015,0.22-2.688,0.513v10.487c-3.656,0-3.656-2-7.312-2c-2.444,0-3.258,0.893-4.619,1.485v3.515c3.653,0,3.653,2,7.307,2
	c3.656,0,3.656-2,7.313-2c3.655,0,3.655,2,7.312,2v-14C46.344,18.565,46.344,16.565,42.688,16.565z"/>
<circle fill="none" stroke="#000000" stroke-width="2" stroke-linecap="round" stroke-linejoin="round" cx="28.569" cy="19.5" r="2.5"/>
</svg>
