<?xml version="1.0" encoding="utf-8"?>
<!-- Generator: Adobe Illustrator 16.0.3, SVG Export Plug-In . SVG Version: 6.00 Build 0)  -->
<!DOCTYPE svg PUBLIC "-//W3C//DTD SVG 1.1//EN" "http://www.w3.org/Graphics/SVG/1.1/DTD/svg11.dtd">
<svg version="1.1" id="Ebene_1" xmlns="http://www.w3.org/2000/svg" xmlns:xlink="http://www.w3.org/1999/xlink" fill="#b8cbd9" x="0px" y="0px"
	 width="64px" height="64px" viewBox="0 0 64 64" enable-background="new 0 0 64 64" xml:space="preserve">
<path d="M42.083,41H23.038c-0.553,0-1-0.448-1-1s0.447-1,1-1h19.045c0.553,0,1,0.448,1,1S42.636,41,42.083,41z"/>
<path d="M12.129,41H7.083c-0.553,0-1-0.448-1-1v-7c0-0.265,0.105-0.52,0.293-0.707l3-3c0.122-0.123,0.274-0.211,0.441-0.257
	l10.84-2.992C21.871,25.228,29.959,20,38.126,20c7.977,0,14.177,5.01,15.418,6.088l4.711,0.931c0.468,0.093,0.806,0.503,0.806,0.981
	v11.998c0,0.266-0.105,0.52-0.294,0.708c-0.188,0.188-0.441,0.292-0.706,0.292c-0.001,0-0.001,0-0.002,0l-5.379-0.01
	c-0.552-0.001-0.999-0.45-0.998-1.002c0.001-0.551,0.448-0.998,1-0.998c0.001,0,0.001,0,0.002,0l4.377,0.008V28.822l-4.172-0.825
	c-0.181-0.036-0.349-0.122-0.484-0.247C52.342,27.693,46.074,22,38.126,22c-8.051,0-16.39,5.728-16.473,5.786
	c-0.093,0.064-0.195,0.113-0.305,0.143l-10.745,2.965l-2.521,2.521V39h4.046c0.553,0,1,0.448,1,1S12.682,41,12.129,41z"/>
<path d="M17.746,46c-3.032,0-5.499-2.467-5.499-5.5c0-3.032,2.467-5.5,5.499-5.5c3.033,0,5.501,2.467,5.501,5.5
	C23.247,43.533,20.779,46,17.746,46z M17.746,37c-1.93,0-3.499,1.57-3.499,3.5c0,1.93,1.569,3.5,3.499,3.5
	c1.931,0,3.501-1.57,3.501-3.5C21.247,38.57,19.677,37,17.746,37z"/>
<path d="M47.472,46c-3.032,0-5.5-2.467-5.5-5.5c0-3.032,2.468-5.5,5.5-5.5s5.5,2.467,5.5,5.5C52.972,43.533,50.504,46,47.472,46z
	 M47.472,37c-1.93,0-3.5,1.57-3.5,3.5c0,1.93,1.57,3.5,3.5,3.5s3.5-1.57,3.5-3.5C50.972,38.57,49.401,37,47.472,37z"/>
<path d="M38.131,40.92c-0.553,0-1-0.448-1-1V21.906c0-0.552,0.447-1,1-1s1,0.448,1,1V39.92C39.131,40.473,38.684,40.92,38.131,40.92
	z"/>
<path d="M35.083,32h-3c-0.553,0-1-0.448-1-1s0.447-1,1-1h3c0.553,0,1,0.448,1,1S35.636,32,35.083,32z"/>
<path d="M58.083,31h-4c-0.553,0-1-0.448-1-1s0.447-1,1-1h4c0.553,0,1,0.448,1,1S58.636,31,58.083,31z"/>
<path d="M53.083,28h-32c-0.553,0-1-0.448-1-1s0.447-1,1-1h32c0.553,0,1,0.448,1,1S53.636,28,53.083,28z"/>
</svg>
