<?xml version="1.0" encoding="utf-8"?>
<!-- Generator: Adobe Illustrator 16.0.3, SVG Export Plug-In . SVG Version: 6.00 Build 0)  -->
<!DOCTYPE svg PUBLIC "-//W3C//DTD SVG 1.1//EN" "http://www.w3.org/Graphics/SVG/1.1/DTD/svg11.dtd">
<svg version="1.1" id="Ebene_1" xmlns="http://www.w3.org/2000/svg" xmlns:xlink="http://www.w3.org/1999/xlink" fill="#b8cbd9" x="0px" y="0px"
	 width="64px" height="64px" viewBox="0 0 64 64" enable-background="new 0 0 64 64" xml:space="preserve">
<path d="M48.312,57c-0.479,0-0.903-0.346-0.985-0.835l-5.948-35.462H22.624l-5.952,35.463c-0.092,0.544-0.604,0.915-1.152,0.82
	c-0.544-0.092-0.912-0.607-0.821-1.152l6.092-36.296c0.081-0.481,0.498-0.834,0.986-0.834h20.447c0.488,0,0.905,0.353,0.986,0.834
	l6.088,36.297c0.091,0.544-0.276,1.06-0.821,1.151C48.422,56.996,48.366,57,48.312,57z"/>
<path d="M32,57c-0.552,0-1-0.447-1-1v-8c0-0.553,0.448-1,1-1s1,0.447,1,1v8C33,56.553,32.552,57,32,57z"/>
<path d="M32,45c-0.552,0-1-0.447-1-1v-5c0-0.552,0.448-1,1-1s1,0.448,1,1v5C33,44.553,32.552,45,32,45z"/>
<path d="M32,36c-0.552,0-1-0.448-1-1v-4c0-0.552,0.448-1,1-1s1,0.448,1,1v4C33,35.552,32.552,36,32,36z"/>
<path d="M32,28.162c-0.552,0-1-0.448-1-1v-2c0-0.552,0.448-1,1-1s1,0.448,1,1v2C33,27.714,32.552,28.162,32,28.162z"/>
<path d="M32,22.718c-0.552,0-1-0.448-1-1v-1c0-0.552,0.448-1,1-1s1,0.448,1,1v1C33,22.271,32.552,22.718,32,22.718z"/>
<g>
	<path d="M54,49c-0.553,0-1-0.447-1-1V34c0-0.552,0.447-1,1-1s1,0.448,1,1v14C55,48.553,54.553,49,54,49z"/>
	<path d="M54,43c-3.309,0-6-2.691-6-6v-6c0-3.309,2.691-6,6-6s6,2.691,6,6v6C60,40.309,57.309,43,54,43z M54,27
		c-2.206,0-4,1.794-4,4v6c0,2.206,1.794,4,4,4s4-1.794,4-4v-6C58,28.794,56.206,27,54,27z"/>
</g>
<g>
	<path d="M10,49c-0.552,0-1-0.447-1-1V34c0-0.552,0.448-1,1-1s1,0.448,1,1v14C11,48.553,10.552,49,10,49z"/>
	<path d="M10,43c-3.309,0-6-2.691-6-6v-6c0-3.309,2.691-6,6-6s6,2.691,6,6v6C16,40.309,13.309,43,10,43z M10,27
		c-2.206,0-4,1.794-4,4v6c0,2.206,1.794,4,4,4s4-1.794,4-4v-6C14,28.794,12.206,27,10,27z"/>
</g>
<g>
	<path d="M50,25c-0.553,0-1-0.448-1-1V13c0-0.552,0.447-1,1-1s1,0.448,1,1v11C51,24.552,50.553,25,50,25z"/>
	<path d="M50,21c-2.757,0-5-2.691-5-6v-3c0-3.309,2.243-6,5-6s5,2.691,5,6v3C55,18.309,52.757,21,50,21z M50,8c-1.626,0-3,1.832-3,4
		v3c0,2.168,1.374,4,3,4s3-1.832,3-4v-3C53,9.832,51.626,8,50,8z"/>
</g>
<g>
	<path d="M15,25c-0.552,0-1-0.448-1-1V13c0-0.552,0.448-1,1-1s1,0.448,1,1v11C16,24.552,15.552,25,15,25z"/>
	<path d="M15,21c-2.757,0-5-2.691-5-6v-3c0-3.309,2.243-6,5-6s5,2.691,5,6v3C20,18.309,17.757,21,15,21z M15,8c-1.626,0-3,1.832-3,4
		v3c0,2.168,1.374,4,3,4s3-1.832,3-4v-3C18,9.832,16.626,8,15,8z"/>
</g>
<path d="M59.5,20.703h-55c-0.552,0-1-0.448-1-1s0.448-1,1-1h55c0.553,0,1,0.448,1,1S60.053,20.703,59.5,20.703z"/>
</svg>
