<?xml version="1.0" encoding="utf-8"?>
<!-- Generator: Adobe Illustrator 16.0.3, SVG Export Plug-In . SVG Version: 6.00 Build 0)  -->
<!DOCTYPE svg PUBLIC "-//W3C//DTD SVG 1.1//EN" "http://www.w3.org/Graphics/SVG/1.1/DTD/svg11.dtd">
<svg version="1.1" id="Ebene_1" xmlns="http://www.w3.org/2000/svg" xmlns:xlink="http://www.w3.org/1999/xlink" x="0px" y="0px"
	 width="64px" height="64px" viewBox="0 0 64 64" enable-background="new 0 0 64 64" xml:space="preserve">
<g>
	<path fill="none" d="M51,26h-3c-0.552,0-1,0.449-1,1s0.448,1,1,1h3c0.552,0,1-0.449,1-1S51.552,26,51,26z"/>
	<path fill="none" d="M47,35h-4c-0.552,0-1,0.449-1,1s0.448,1,1,1h4c0.552,0,1-0.449,1-1S47.552,35,47,35z"/>
	<path fill="none" d="M18,37h4c0.552,0,1-0.449,1-1s-0.448-1-1-1h-4c-0.552,0-1,0.449-1,1S17.448,37,18,37z"/>
	<path fill="none" d="M47,30H18c-1.545,0-3,2.253-3,4v2c0-1.654,1.346-3,3-3h4c1.654,0,3,1.346,3,3s-1.346,3-3,3h-4
		c-1.654,0-3-1.346-3-3v3c0,1.664,0.337,2,2,2h5h21h5c1.663,0,2-0.336,2-2v-3c0,1.654-1.346,3-3,3h-4c-1.654,0-3-1.346-3-3
		s1.346-3,3-3h4c1.654,0,3,1.346,3,3v-2C50,32.253,48.545,30,47,30z M39,36.5c0,1.995-1.075,3.5-2.5,3.5h-8
		c-1.425,0-2.5-1.505-2.5-3.5V36c0-0.552,0.447-1,1-1h11c0.553,0,1,0.448,1,1V36.5z"/>
	<path fill="none" d="M44,43v2c0,0.551,0.448,1,1,1h3c0.552,0,1-0.449,1-1v-2h-1H44z"/>
	<path fill="none" d="M40.754,21h-1.34l-3.707,3.707C35.512,24.902,35.256,25,35,25s-0.512-0.098-0.707-0.293
		c-0.391-0.391-0.391-1.023,0-1.414L36.586,21h-2.241c-0.042,0.071-0.076,0.146-0.138,0.207l-5.5,5.5C28.512,26.902,28.256,27,28,27
		s-0.512-0.098-0.707-0.293c-0.391-0.391-0.391-1.023,0-1.414L31.586,21h-7.34c-0.725,0.707-2.608,4.007-4.126,7h24.76
		C43.361,25.007,41.479,21.707,40.754,21z"/>
	<path fill="none" d="M16,43v2c0,0.551,0.448,1,1,1h3c0.552,0,1-0.449,1-1v-2h-4H16z"/>
	<path fill="none" d="M17,27c0-0.551-0.448-1-1-1h-3c-0.552,0-1,0.449-1,1s0.448,1,1,1h3C16.552,28,17,27.551,17,27z"/>
	<path fill="none" d="M28.521,38.003L36.486,38c0.118-0.052,0.375-0.404,0.474-1h-8.92C28.141,37.608,28.406,37.962,28.521,38.003z"
		/>
	<path d="M38,35H27c-0.553,0-1,0.448-1,1v0.5c0,1.995,1.075,3.5,2.5,3.5h8c1.425,0,2.5-1.505,2.5-3.5V36C39,35.448,38.553,35,38,35z
		 M36.486,38l-7.966,0.003c-0.114-0.041-0.38-0.395-0.48-1.003h8.92C36.861,37.596,36.604,37.948,36.486,38z"/>
	<path d="M51,24h-3c-0.952,0-1.793,0.455-2.343,1.149C42.41,19.02,41.506,19,41,19H24c-0.531,0-1.494,0.003-5.154,7.096
		C18.459,24.885,17.337,24,16,24h-3c-1.654,0-3,1.346-3,3s1.346,3,3,3h1.415C13.535,31.148,13,32.628,13,34v5
		c0,1.407,0.323,2.413,1,3.066V45c0,1.654,1.346,3,3,3h3c1.654,0,3-1.346,3-3v-2h19v2c0,1.654,1.346,3,3,3h3c1.654,0,3-1.346,3-3
		v-2.934c0.677-0.653,1-1.66,1-3.066v-5c0-1.372-0.535-2.852-1.415-4H51c1.654,0,3-1.346,3-3S52.654,24,51,24z M24.246,21h7.34
		l-4.293,4.293c-0.391,0.391-0.391,1.023,0,1.414C27.488,26.902,27.744,27,28,27s0.512-0.098,0.707-0.293l5.5-5.5
		c0.062-0.061,0.096-0.136,0.138-0.207h2.241l-2.293,2.293c-0.391,0.391-0.391,1.023,0,1.414C34.488,24.902,34.744,25,35,25
		s0.512-0.098,0.707-0.293L39.414,21h1.34c0.725,0.707,2.607,4.007,4.126,7H20.12C21.638,25.007,23.521,21.707,24.246,21z M13,28
		c-0.552,0-1-0.449-1-1s0.448-1,1-1h3c0.552,0,1,0.449,1,1s-0.448,1-1,1H13z M21,45c0,0.551-0.448,1-1,1h-3c-0.552,0-1-0.449-1-1v-2
		h1h4V45z M49,45c0,0.551-0.448,1-1,1h-3c-0.552,0-1-0.449-1-1v-2h4h1V45z M50,36v3c0,1.664-0.337,2-2,2h-5H22h-5
		c-1.663,0-2-0.336-2-2v-3v-2c0-1.747,1.455-4,3-4h29c1.545,0,3,2.253,3,4V36z M51,28h-3c-0.552,0-1-0.449-1-1s0.448-1,1-1h3
		c0.552,0,1,0.449,1,1S51.552,28,51,28z"/>
	<path d="M47,33h-4c-1.654,0-3,1.346-3,3s1.346,3,3,3h4c1.654,0,3-1.346,3-3S48.654,33,47,33z M47,37h-4c-0.552,0-1-0.449-1-1
		s0.448-1,1-1h4c0.552,0,1,0.449,1,1S47.552,37,47,37z"/>
	<path d="M18,39h4c1.654,0,3-1.346,3-3s-1.346-3-3-3h-4c-1.654,0-3,1.346-3,3S16.346,39,18,39z M18,35h4c0.552,0,1,0.449,1,1
		s-0.448,1-1,1h-4c-0.552,0-1-0.449-1-1S17.448,35,18,35z"/>
</g>
</svg>
