<?xml version="1.0" encoding="utf-8"?>
<!-- Generator: Adobe Illustrator 16.0.3, SVG Export Plug-In . SVG Version: 6.00 Build 0)  -->
<!DOCTYPE svg PUBLIC "-//W3C//DTD SVG 1.1//EN" "http://www.w3.org/Graphics/SVG/1.1/DTD/svg11.dtd">
<svg version="1.1" id="Ebene_1" xmlns="http://www.w3.org/2000/svg" xmlns:xlink="http://www.w3.org/1999/xlink" x="0px" y="0px"
	 width="64px" height="64px" viewBox="0 0 64 64" enable-background="new 0 0 64 64" xml:space="preserve">
<circle fill="none" stroke="#000000" stroke-width="2" stroke-linecap="round" stroke-linejoin="round" stroke-miterlimit="10" cx="49.751" cy="17" r="5"/>
<path fill="none" stroke="#000000" stroke-width="2" stroke-linecap="round" stroke-linejoin="round" stroke-miterlimit="10" d="
	M43.615,25.231h-0.864C42.567,22.865,40.565,21,38.115,21c-2.57,0-4.653,2.052-4.653,4.583v0.494h-0.423
	c-1.637,0-2.962,1.326-2.962,2.961c0,1.636,1.325,2.961,2.962,2.961h10.576C45.484,32,47,30.484,47,28.615
	S45.484,25.231,43.615,25.231z"/>
<path fill="none" stroke="#000000" stroke-width="2" stroke-linecap="round" stroke-linejoin="round" stroke-miterlimit="10" d="
	M30.077,29.039c0-1.635,1.325-2.961,2.962-2.961h0.423v-0.494c0-1.299,0.554-2.465,1.435-3.299C34.377,19.838,32.176,18,29.537,18
	c-2.885,0-5.242,2.196-5.458,4.981h-1.017c-2.201,0-3.985,1.784-3.985,3.984s1.784,3.984,3.985,3.984h7.73
	C30.353,30.433,30.077,29.771,30.077,29.039z"/>
<line fill="none" stroke="#000000" stroke-width="2" stroke-linecap="round" stroke-linejoin="round" stroke-dasharray="4,5,2,5,1,5" x1="33.615" y1="34" x2="28.762" y2="54"/>
<line fill="none" stroke="#000000" stroke-width="2" stroke-linecap="round" stroke-linejoin="round" stroke-dasharray="1,5,2,5,4,5" x1="29.615" y1="34" x2="24.762" y2="54"/>
<line fill="none" stroke="#000000" stroke-width="2" stroke-linecap="round" stroke-linejoin="round" stroke-dasharray="1,5,2,5,4,5" x1="21.615" y1="34" x2="16.762" y2="54"/>
<line fill="none" stroke="#000000" stroke-width="2" stroke-linecap="round" stroke-linejoin="round" stroke-dasharray="4,5,2,5,1,5" x1="25.615" y1="34" x2="20.762" y2="54"/>
<g>
	
		<polygon fill="none" stroke="#000000" stroke-width="2" stroke-linecap="round" stroke-linejoin="round" stroke-miterlimit="10" points="
		45,49.094 48.982,37 52.965,49.094 	"/>
	
		<line fill="none" stroke="#000000" stroke-width="2" stroke-linecap="round" stroke-linejoin="round" stroke-miterlimit="10" x1="48.982" y1="47.063" x2="48.982" y2="51.063"/>
</g>
<path fill="none" stroke="#000000" stroke-width="2" stroke-linecap="round" stroke-linejoin="round" stroke-miterlimit="10" d="
	M13.689,17.012c0,2.876,2.008,4.595,2.008,4.595C15.1,21.86,14.441,22,13.751,22c-2.762,0-5-2.239-5-5s2.238-5,5-5
	c0.755,0,1.472,0.167,2.113,0.467C15.864,12.467,13.689,14.136,13.689,17.012z"/>
<g>
	<g>
		<path fill="none" stroke="#000000" stroke-width="2" stroke-linecap="round" stroke-linejoin="round" stroke-miterlimit="10" d="
			M36,42c0-2.2,1.8-4,4-4s4,1.8,4,4s-1.8,4-4,4S36,44.2,36,42z"/>
		<path fill="none" stroke="#000000" stroke-width="2" stroke-linecap="round" stroke-linejoin="round" stroke-miterlimit="10" d="
			M36,42c0-2.2,1.8-4,4-4s4,1.8,4,4s-1.8,4-4,4S36,44.2,36,42z"/>
	</g>
	
		<line fill="none" stroke="#000000" stroke-width="2" stroke-linecap="round" stroke-linejoin="round" stroke-miterlimit="10" x1="40.001" y1="50.573" x2="40.001" y2="42"/>
</g>
<g>
	<path fill="none" stroke="#000000" stroke-width="2" stroke-linecap="round" stroke-linejoin="round" stroke-miterlimit="10" d="
		M56,50.991c-1.044-0.655-2.142-1.287-3.279-1.897"/>
	<path fill="none" stroke="#000000" stroke-width="2" stroke-linecap="round" stroke-linejoin="round" stroke-miterlimit="10" d="
		M46.026,45.976c-1.029-0.416-2.079-0.819-3.158-1.203C42.14,45.526,41.124,46,40,46c-1.975,0-3.614-1.453-3.933-3.34
		C27.95,40.489,18.794,39.186,9,39.009"/>
</g>
</svg>
