<?xml version="1.0" encoding="utf-8"?>
<!-- Generator: Adobe Illustrator 16.0.3, SVG Export Plug-In . SVG Version: 6.00 Build 0)  -->
<!DOCTYPE svg PUBLIC "-//W3C//DTD SVG 1.1//EN" "http://www.w3.org/Graphics/SVG/1.1/DTD/svg11.dtd">
<svg version="1.1" id="Ebene_1" xmlns="http://www.w3.org/2000/svg" xmlns:xlink="http://www.w3.org/1999/xlink" fill="#b8cbd9" x="0px" y="0px"
	 width="64px" height="64px" viewBox="0 0 64 64" enable-background="new 0 0 64 64" xml:space="preserve">
<g>
	<path d="M19.646,38.045c-0.282,0-0.567-0.037-0.854-0.13c-0.916-0.298-1.485-1.025-1.987-1.667
		c-0.269-0.344-0.521-0.668-0.77-0.849c-0.255-0.186-0.646-0.329-1.061-0.48c-0.761-0.279-1.623-0.596-2.182-1.365
		c-0.555-0.762-0.591-1.676-0.622-2.482c-0.018-0.444-0.034-0.864-0.134-1.171c-0.092-0.281-0.317-0.616-0.558-0.972
		c-0.459-0.68-0.979-1.45-0.979-2.429s0.52-1.749,0.979-2.429c0.24-0.355,0.466-0.69,0.558-0.972c0.1-0.307,0.116-0.727,0.134-1.171
		c0.031-0.807,0.067-1.721,0.622-2.482c0.561-0.77,1.422-1.086,2.183-1.365c0.414-0.152,0.805-0.296,1.06-0.48
		c0.248-0.181,0.501-0.505,0.77-0.849c0.502-0.642,1.071-1.369,1.987-1.667c0.883-0.285,1.755-0.041,2.526,0.176
		c0.436,0.123,0.848,0.239,1.183,0.239s0.747-0.116,1.183-0.239c0.772-0.217,1.645-0.461,2.526-0.176
		c0.916,0.298,1.485,1.025,1.987,1.667c0.269,0.344,0.521,0.668,0.77,0.849c0.255,0.186,0.646,0.329,1.061,0.48
		c0.761,0.279,1.623,0.596,2.182,1.365c0.555,0.762,0.591,1.676,0.622,2.482c0.018,0.444,0.034,0.864,0.134,1.171
		c0.092,0.281,0.317,0.616,0.558,0.972c0.164,0.243,0.329,0.489,0.471,0.739c0.274,0.479,0.107,1.09-0.373,1.363
		c-0.48,0.274-1.092,0.107-1.363-0.373c-0.118-0.207-0.256-0.409-0.393-0.61c-0.307-0.454-0.623-0.924-0.802-1.473
		c-0.185-0.57-0.209-1.177-0.229-1.711c-0.021-0.547-0.044-1.113-0.241-1.385c-0.202-0.277-0.736-0.474-1.253-0.663
		c-0.525-0.192-1.068-0.392-1.549-0.741c-0.474-0.345-0.827-0.797-1.169-1.233c-0.341-0.437-0.694-0.889-1.028-0.997
		c-0.312-0.102-0.846,0.052-1.366,0.199C23.703,17.333,23.111,17.5,22.5,17.5s-1.203-0.167-1.726-0.313
		c-0.521-0.147-1.056-0.3-1.366-0.199c-0.334,0.108-0.688,0.561-1.028,0.997c-0.342,0.437-0.695,0.889-1.17,1.233
		c-0.479,0.349-1.021,0.548-1.546,0.74c-0.518,0.19-1.053,0.387-1.255,0.665c-0.197,0.271-0.22,0.837-0.241,1.384
		c-0.021,0.534-0.045,1.141-0.229,1.71c-0.179,0.55-0.495,1.02-0.802,1.474C12.81,25.675,12.5,26.134,12.5,26.5
		s0.31,0.825,0.637,1.31c0.307,0.454,0.623,0.924,0.802,1.474c0.185,0.569,0.209,1.176,0.229,1.71
		c0.021,0.547,0.044,1.113,0.241,1.385c0.202,0.277,0.736,0.474,1.253,0.663c0.525,0.192,1.068,0.392,1.549,0.741
		c0.474,0.345,0.827,0.797,1.169,1.233c0.341,0.437,0.694,0.889,1.028,0.997c0.311,0.1,0.845-0.052,1.366-0.199
		c0.522-0.146,1.114-0.313,1.726-0.313s1.203,0.167,1.726,0.313c0.521,0.147,1.056,0.3,1.366,0.199
		c0.334-0.108,0.688-0.561,1.029-0.997c0.214-0.274,0.583-0.465,0.937-0.426l0.366,0.041c0.549,0.062,0.944,0.557,0.883,1.105
		c-0.055,0.482-0.442,0.846-0.908,0.885c-0.45,0.547-0.96,1.057-1.688,1.294c-0.882,0.286-1.755,0.041-2.527-0.176
		C23.247,37.616,22.835,37.5,22.5,37.5s-0.747,0.116-1.183,0.239C20.797,37.886,20.23,38.045,19.646,38.045z"/>
</g>
<path d="M41,50c-7.72,0-14-6.28-14-14s6.28-14,14-14c0.266,0,0.52,0.105,0.707,0.293l13,13C54.895,35.48,55,35.734,55,36
	C55,43.72,48.72,50,41,50z M40.593,24.007C34.164,24.223,29,29.52,29,36c0,6.617,5.383,12,12,12c6.48,0,11.777-5.164,11.993-11.593
	L40.593,24.007z"/>
<path d="M54,37c-7.72,0-14-6.28-14-14c0-0.553,0.447-1,1-1s1,0.447,1,1c0,6.617,5.383,12,12,12c0.553,0,1,0.447,1,1S54.553,37,54,37
	z"/>
<path d="M41,46c-5.514,0-10-4.486-10-10s4.486-10,10-10c0.553,0,1,0.447,1,1s-0.447,1-1,1c-4.411,0-8,3.589-8,8s3.589,8,8,8
	s8-3.589,8-8c0-0.553,0.447-1,1-1s1,0.447,1,1C51,41.514,46.514,46,41,46z"/>
</svg>
