<?xml version="1.0" encoding="utf-8"?>
<!-- Generator: Adobe Illustrator 16.0.3, SVG Export Plug-In . SVG Version: 6.00 Build 0)  -->
<!DOCTYPE svg PUBLIC "-//W3C//DTD SVG 1.1//EN" "http://www.w3.org/Graphics/SVG/1.1/DTD/svg11.dtd">
<svg version="1.1" id="Ebene_1" xmlns="http://www.w3.org/2000/svg" xmlns:xlink="http://www.w3.org/1999/xlink" fill="#b8cbd9" x="0px" y="0px"
	 width="64px" height="63.999px" viewBox="0 0 64 63.999" enable-background="new 0 0 64 63.999" xml:space="preserve">
<path d="M41,20c-2.757,0-5-2.243-5-5s2.243-5,5-5s5,2.243,5,5S43.757,20,41,20z M41,12c-1.654,0-3,1.346-3,3s1.346,3,3,3
	s3-1.346,3-3S42.654,12,41,12z"/>
<path d="M46.33,41.499c-0.389,0-0.759-0.229-0.921-0.609c-0.216-0.508,0.021-1.096,0.529-1.312C47.798,38.789,49,36.98,49,34.973V28
	c0-2.757-2.243-5-5-5h-6c-2.757,0-5,2.243-5,5v6.973c0,1.993,1.189,3.795,3.03,4.592c0.507,0.219,0.74,0.808,0.52,1.315
	c-0.22,0.506-0.809,0.738-1.315,0.521C32.663,40.286,31,37.763,31,34.973V28c0-3.86,3.14-7,7-7h6c3.86,0,7,3.14,7,7v6.973
	c0,2.812-1.68,5.342-4.28,6.446C46.592,41.474,46.46,41.499,46.33,41.499z"/>
<path d="M46,56H36c-0.552,0-1-0.447-1-1V27.333c0-0.552,0.448-1,1-1s1,0.448,1,1V54h8V27.333c0-0.552,0.448-1,1-1s1,0.448,1,1V55
	C47,55.553,46.552,56,46,56z"/>
<path d="M41,56c-0.001,0-0.003,0-0.005,0c-0.552-0.003-0.998-0.453-0.995-1.005l0.079-15.791c0.003-0.551,0.45-0.995,1-0.995
	c0.001,0,0.003,0,0.005,0c0.552,0.003,0.998,0.453,0.995,1.005L42,55.005C41.997,55.556,41.55,56,41,56z"/>
<path d="M23,18c-2.757,0-5-2.243-5-5s2.243-5,5-5s5,2.243,5,5S25.757,18,23,18z M23,10c-1.654,0-3,1.346-3,3s1.346,3,3,3
	s3-1.346,3-3S24.654,10,23,10z"/>
<path d="M28.282,40.52c-0.393,0-0.765-0.232-0.924-0.618c-0.211-0.51,0.031-1.095,0.541-1.307C29.783,37.815,31,36,31,33.973V26
	c0-2.757-2.243-5-5-5h-6c-2.757,0-5,2.243-5,5v7.973c0,1.984,1.183,3.784,3.013,4.585c0.506,0.221,0.737,0.811,0.515,1.317
	c-0.221,0.506-0.811,0.736-1.317,0.515C14.653,39.271,13,36.752,13,33.973V26c0-3.86,3.14-7,7-7h6c3.86,0,7,3.14,7,7v7.973
	c0,2.839-1.702,5.379-4.336,6.471C28.539,40.495,28.409,40.52,28.282,40.52z"/>
<path d="M28,56H18c-0.552,0-1-0.447-1-1V25.501c0-0.552,0.448-1,1-1s1,0.448,1,1V54h8V25.501c0-0.552,0.448-1,1-1s1,0.448,1,1V55
	C29,55.553,28.552,56,28,56z"/>
<path d="M23,56c-0.552,0-1-0.447-1-1V38.209c0-0.552,0.448-1,1-1s1,0.448,1,1V55C24,55.553,23.552,56,23,56z"/>
</svg>
