<?xml version="1.0" encoding="utf-8"?>
<!-- Generator: Adobe Illustrator 16.0.3, SVG Export Plug-In . SVG Version: 6.00 Build 0)  -->
<!DOCTYPE svg PUBLIC "-//W3C//DTD SVG 1.1//EN" "http://www.w3.org/Graphics/SVG/1.1/DTD/svg11.dtd">
<svg version="1.1" id="Ebene_1" xmlns="http://www.w3.org/2000/svg" xmlns:xlink="http://www.w3.org/1999/xlink" fill="#b8cbd9" x="0px" y="0px"
	 width="64px" height="64px" viewBox="0 0 64 64" enable-background="new 0 0 64 64" xml:space="preserve">
<path d="M47,53H19c-0.553,0-1-0.447-1-1V13c0-0.553,0.447-1,1-1h28c0.553,0,1,0.447,1,1v39C48,52.553,47.553,53,47,53z M20,51h26V14
	H20V51z"/>
<path d="M47,34c-6.477,0-11-8.636-11-21c0-0.553,0.447-1,1-1s1,0.447,1,1c0,10.832,3.869,19,9,19c0.553,0,1,0.447,1,1
	S47.553,34,47,34z"/>
<path d="M40.001,53c-0.068,0-0.138-0.007-0.207-0.021c-0.54-0.113-0.887-0.645-0.772-1.185l4-19c0.113-0.54,0.646-0.885,1.185-0.772
	c0.54,0.113,0.887,0.645,0.772,1.185l-4,19C40.88,52.677,40.464,53,40.001,53z"/>
<path d="M19,34c-0.553,0-1-0.447-1-1s0.447-1,1-1c5.131,0,9-8.168,9-19c0-0.553,0.447-1,1-1s1,0.447,1,1C30,25.364,25.477,34,19,34z
	"/>
<path d="M25.999,53c-0.463,0-0.878-0.323-0.978-0.794l-4-19c-0.114-0.54,0.232-1.071,0.772-1.185
	c0.537-0.112,1.07,0.232,1.185,0.772l4,19c0.114,0.54-0.232,1.071-0.772,1.185C26.137,52.993,26.067,53,25.999,53z"/>
<path d="M33,53c-0.553,0-1-0.447-1-1V13c0-0.553,0.447-1,1-1s1,0.447,1,1v39C34,52.553,33.553,53,33,53z"/>
<path d="M47,28H19c-0.553,0-1-0.447-1-1s0.447-1,1-1h28c0.553,0,1,0.447,1,1S47.553,28,47,28z"/>
</svg>
