<?xml version="1.0" encoding="utf-8"?>
<!-- Generator: Adobe Illustrator 21.0.2, SVG Export Plug-In . SVG Version: 6.00 Build 0)  -->
<svg version="1.1" id="Ebene_1" xmlns="http://www.w3.org/2000/svg" xmlns:xlink="http://www.w3.org/1999/xlink" x="0px" y="0px"
	 viewBox="0 0 64 64" style="enable-background:new 0 0 64 64;" xml:space="preserve">
<path d="M24.1,41.8c-2.5,0-4.5-2-4.5-4.5s2-4.5,4.5-4.5c2.5,0,4.5,2,4.5,4.5S26.6,41.8,24.1,41.8z M24.1,34.8
	c-1.4,0-2.5,1.1-2.5,2.5s1.1,2.5,2.5,2.5s2.5-1.1,2.5-2.5S25.5,34.8,24.1,34.8z"/>
<path d="M37.5,32.9c-1.6,0-2.6-1.2-2.6-3.1c0-1.7,1.4-3.1,3.1-3.1c1.6,0,2.6,1.2,2.6,3.1C40.5,31.5,39.2,32.9,37.5,32.9z M37.9,28.7
	c-0.6,0-1.1,0.5-1.1,1.1c0,1.1,0.5,1.1,0.6,1.1c0.6,0,1.1-0.5,1.1-1.1C38.5,28.7,38.1,28.7,37.9,28.7z"/>
<path d="M34.3,25.7c-1.7,0-3.1-1.4-3.1-3.1c0-1.7,1.4-3.1,3.1-3.1c1.7,0,3.1,1.4,3.1,3.1C37.4,24.3,36,25.7,34.3,25.7z M34.3,21.6
	c-0.6,0-1.1,0.5-1.1,1.1s0.5,1.1,1.1,1.1c0.6,0,1.1-0.5,1.1-1.1S34.9,21.6,34.3,21.6z"/>
<path d="M27.2,22.1c-1.7,0-3.1-1.4-3.1-3.1c0-1.7,1.4-3.1,3.1-3.1c1.7,0,3.1,1.4,3.1,3.1C30.2,20.8,28.9,22.1,27.2,22.1z M27.2,18
	c-0.6,0-1.1,0.5-1.1,1.1s0.5,1.1,1.1,1.1s1.1-0.5,1.1-1.1S27.8,18,27.2,18z"/>
<path d="M19.1,22.1c-1.7,0-3.1-1.4-3.1-3.1c0-1.7,1.4-3.1,3.1-3.1c1.7,0,3.1,1.4,3.1,3.1C22.2,20.8,20.8,22.1,19.1,22.1z M19.1,18
	c-0.6,0-1.1,0.5-1.1,1.1s0.5,1.1,1.1,1.1s1.1-0.5,1.1-1.1S19.7,18,19.1,18z"/>
<path d="M15.5,29.3c-1.7,0-3.1-1.4-3.1-3.1c0-1.7,1.4-3.1,3.1-3.1c1.7,0,3.1,1.4,3.1,3.1C18.6,27.9,17.2,29.3,15.5,29.3z M15.5,25.2
	c-0.6,0-1.1,0.5-1.1,1.1s0.5,1.1,1.1,1.1s1.1-0.5,1.1-1.1S16.1,25.2,15.5,25.2z"/>
<g>
	<path d="M36.1,51.5l-3.5-3.8l0.4-0.6c0.5-0.7,2.9-4.5,5.4-7.1C41,37.3,55.5,24,58.6,24c0.5,0,0.8,0.2,1,0.4s0.4,0.5,0.4,1
		C60,28.5,46.7,43,44,45.6c-2.9,2.8-7,5.4-7.2,5.5L36.1,51.5z M35.1,47.5l1.4,1.5c1.3-0.8,4.1-2.8,6.2-4.8
		c3.9-3.8,12.6-13.9,14.8-17.7c-3.8,2.2-13.8,10.9-17.7,14.8C37.8,43.4,35.9,46.2,35.1,47.5z"/>
	<path d="M28,56h-1v-1c0-3.3,0.6-5.5,2-6.8c1.4-1.4,3.2-1.3,4.5-1.2c0.2,0,0.4,0,0.6,0v2c-0.2,0-0.4,0-0.7,0c-1,0-2.2-0.1-3,0.7
		c-0.8,0.8-1.2,2.2-1.3,4.3c5.1-0.1,6.2-1.2,7-4.2l1.9,0.5C36.7,55.1,33.8,56,28,56z"/>
	<rect x="40.9" y="39.6" transform="matrix(0.7071 -0.7071 0.7071 0.7071 -17.4868 41.9628)" width="2" height="5"/>
</g>
<path d="M26.6,47.4c-4.5,0-10.3-4.6-11.7-5.9c-8-7.6-9.2-19.3-2.8-26c6.3-6.6,18-5.7,26.1,2C42.5,21.5,45,27.2,45,33
	c0,1-0.2,2.5-0.7,3.9l-0.1,0.3L44,37.4c-1.8,1.6-3.3,3.1-4.2,4c-0.4,0.4-0.8,0.9-1.3,1.4L38,43.4l-0.7-0.3c-0.3-0.1-0.6-0.3-0.8-0.5
	l0,0c-0.7-0.5-1.2-1.2-1.6-2c-0.9-1.5-1.2-1.7-2.1-1.3c-0.9,0.5-1.1,1.4-1.3,2.9c-0.2,1-0.3,2.1-0.9,3c-0.8,1.2-1.9,1.9-3.4,2
	C27,47.4,26.8,47.4,26.6,47.4z M23.1,13c-3.7,0-7.1,1.3-9.5,3.8c-5.7,6-4.5,16.4,2.7,23.2c2.2,2.1,7.5,5.7,10.7,5.4
	c0.9-0.1,1.5-0.5,1.9-1.2c0.4-0.5,0.5-1.4,0.6-2.2c0.2-1.5,0.5-3.4,2.4-4.4c2.6-1.4,3.9,0.7,4.7,2c0.3,0.5,0.6,1,0.9,1.3
	c0.3-0.3,0.6-0.6,0.8-0.9c0.9-1,2.4-2.3,4.1-3.9c0.4-1.4,0.5-2.5,0.5-3.1c0-5.3-2.2-10.5-6.1-14.1C32.8,15,27.7,13,23.1,13z"/>
<path d="M27,56h-2c-0.6,0-1-0.4-1-1s0.4-1,1-1h2c0.6,0,1,0.4,1,1S27.6,56,27,56z"/>
</svg>
