<?xml version="1.0" encoding="utf-8"?>
<!-- Generator: Adobe Illustrator 21.0.0, SVG Export Plug-In . SVG Version: 6.00 Build 0)  -->
<svg version="1.1" id="Group_1_1_" xmlns="http://www.w3.org/2000/svg" xmlns:xlink="http://www.w3.org/1999/xlink" x="0px" y="0px"
	 viewBox="0 0 32 32" style="enable-background:new 0 0 32 32;" xml:space="preserve">
<style type="text/css">
	.st0{fill:#45A3E6;}
</style>
<g id="icon_info">
	<path class="st0" d="M16,4C9.4,4,4,9.4,4,16s5.4,12,12,12s12-5.4,12-12S22.6,4,16,4z M16,26c-5.5,0-10-4.5-10-10S10.5,6,16,6
		s10,4.5,10,10S21.5,26,16,26z M16,14c-0.6,0-1,0.4-1,1v6c0,0.6,0.4,1,1,1s1-0.4,1-1v-6C17,14.4,16.6,14,16,14z M16,10
		c-0.6,0-1,0.4-1,1s0.4,1,1,1s1-0.4,1-1S16.6,10,16,10z"/>
</g>
</svg>
