<?xml version="1.0" encoding="utf-8"?>
<!-- Generator: Adobe Illustrator 16.0.3, SVG Export Plug-In . SVG Version: 6.00 Build 0)  -->
<!DOCTYPE svg PUBLIC "-//W3C//DTD SVG 1.1//EN" "http://www.w3.org/Graphics/SVG/1.1/DTD/svg11.dtd">
<svg version="1.1" id="Ebene_1" xmlns="http://www.w3.org/2000/svg" xmlns:xlink="http://www.w3.org/1999/xlink" x="0px" y="0px"
	 width="64px" height="64px" viewBox="0 0 64 64" enable-background="new 0 0 64 64" xml:space="preserve">
<circle fill="none" stroke="#000000" stroke-width="2" stroke-miterlimit="10" cx="24.13" cy="37.29" r="3.529"/>
<path fill="none" stroke="#000000" stroke-width="2" stroke-miterlimit="10" d="M39.546,29.811c0,1.146-0.929,2.074-2.074,2.074
	s-1.625-0.929-1.625-2.074s0.928-2.074,2.074-2.074C39.065,27.737,39.546,28.666,39.546,29.811z"/>
<circle fill="none" stroke="#000000" stroke-width="2" stroke-miterlimit="10" cx="34.337" cy="22.645" r="2.074"/>
<circle fill="none" stroke="#000000" stroke-width="2" stroke-miterlimit="10" cx="27.171" cy="19.061" r="2.074"/>
<circle fill="none" stroke="#000000" stroke-width="2" stroke-miterlimit="10" cx="19.108" cy="19.061" r="2.075"/>
<circle fill="none" stroke="#000000" stroke-width="2" stroke-miterlimit="10" cx="15.524" cy="26.228" r="2.074"/>
<g>
	<path fill="none" stroke="#000000" stroke-width="2" stroke-miterlimit="10" d="M33.819,47.591c0.446-0.71,2.795-4.386,5.264-6.914
		c3.964-4.055,18.525-16.83,19.798-15.558c1.271,1.272-11.503,15.834-15.558,19.798c-2.81,2.743-7.035,5.339-7.035,5.339
		L33.819,47.591z"/>
	<path fill="none" stroke="#000000" stroke-width="2" stroke-miterlimit="10" d="M37,50c-1,4-3,5-9,5c0-8,4-7,6-7"/>
	<line fill="none" stroke="#000000" stroke-width="2" stroke-miterlimit="10" x1="40.143" y1="40.322" x2="43.678" y2="43.857"/>
</g>
<path fill="none" stroke="#000000" stroke-width="2" stroke-miterlimit="10" d="M37.088,41.774c0.229,0.159,0.45,0.278,0.668,0.375
	c0.432-0.512,0.877-1.011,1.327-1.472c0.938-0.96,2.475-2.412,4.284-4.047c0.411-1.443,0.62-2.807,0.616-3.607
	C43.959,27.384,41.591,22,37.566,18.164c-7.71-7.351-18.779-8.255-24.725-2.02c-5.944,6.236-4.962,17.25,2.748,24.601
	c2.377,2.266,11.151,8.64,14.187,4.024c1.204-1.829,0.307-5.05,2.606-6.269C35.071,37.074,35.498,40.668,37.088,41.774z"/>
<line fill="none" stroke="#000000" stroke-width="2" stroke-linecap="round" stroke-miterlimit="10" x1="27" y1="55" x2="25" y2="55"/>
</svg>
