<?xml version="1.0" encoding="utf-8"?>
<!-- Generator: Adobe Illustrator 21.0.2, SVG Export Plug-In . SVG Version: 6.00 Build 0)  -->
<svg version="1.1" id="Ebene_1" xmlns="http://www.w3.org/2000/svg" xmlns:xlink="http://www.w3.org/1999/xlink" x="0px" y="0px"
	 viewBox="0 0 64 64" style="enable-background:new 0 0 64 64;" xml:space="preserve">
<path d="M53.1,29.4c-0.3,0-0.6-0.1-0.8-0.4l-4.6-5.7c-0.3-0.4-0.3-1.1,0.2-1.4c0.4-0.3,1.1-0.3,1.4,0.2l4.6,5.7
	c0.3,0.4,0.3,1.1-0.2,1.4C53.5,29.4,53.3,29.4,53.1,29.4z"/>
<path d="M35.1,22.4c-0.2,0-0.4-0.1-0.6-0.2c-0.4-0.3-0.5-1-0.2-1.4l6-8c0.2-0.2,0.5-0.4,0.8-0.4c0.3,0,0.6,0.1,0.8,0.4l1.4,1.8
	c0.3,0.4,0.3,1.1-0.2,1.4c-0.4,0.3-1.1,0.3-1.4-0.2l-0.6-0.8l-5.2,7C35.7,22.3,35.4,22.4,35.1,22.4z"/>
<path d="M39.1,28.4c-0.3,0-0.6-0.1-0.8-0.4L25.5,10.1L12.9,27.8c-0.3,0.4-0.9,0.6-1.4,0.2c-0.4-0.3-0.6-0.9-0.2-1.4L24.7,7.8
	c0.2-0.3,0.5-0.4,0.8-0.4c0,0,0,0,0,0c0.3,0,0.6,0.2,0.8,0.4l13.5,19c0.3,0.4,0.2,1.1-0.2,1.4C39.5,28.4,39.3,28.4,39.1,28.4z"/>
<path d="M25.6,19.4C25.6,19.4,25.5,19.4,25.6,19.4c-0.3,0-0.6-0.2-0.8-0.4l-3.4-5c-0.3-0.5-0.2-1.1,0.3-1.4c0.5-0.3,1.1-0.2,1.4,0.3
	l2.6,3.8l2.7-3.8c0.3-0.4,0.9-0.6,1.4-0.2c0.5,0.3,0.6,0.9,0.2,1.4l-3.6,5C26.2,19.3,25.9,19.4,25.6,19.4z"/>
<g>
	<g>
		<path d="M46.1,23.4c-2.8,0-5-2.2-5-5s2.2-5,5-5s5,2.2,5,5S48.8,23.4,46.1,23.4z M46.1,15.4c-1.7,0-3,1.3-3,3s1.3,3,3,3s3-1.3,3-3
			S47.7,15.4,46.1,15.4z"/>
	</g>
	<path d="M46.1,28c-0.6,0-1-0.4-1-1v-8.6c0-0.6,0.4-1,1-1s1,0.4,1,1V27C47.1,27.6,46.6,28,46.1,28z"/>
</g>
<g>
	<g>
		<path d="M14,44.4c-2.8,0-5-2.2-5-5s2.2-5,5-5s5,2.2,5,5S16.8,44.4,14,44.4z M14,36.4c-1.7,0-3,1.3-3,3s1.3,3,3,3s3-1.3,3-3
			S15.7,36.4,14,36.4z"/>
	</g>
	<path d="M14,49c-0.6,0-1-0.4-1-1v-8.6c0-0.6,0.4-1,1-1s1,0.4,1,1V48C15,48.6,14.6,49,14,49z"/>
</g>
<g>
	<g>
		<path d="M50,50.4c-2.8,0-5-2.2-5-5s2.2-5,5-5s5,2.2,5,5S52.8,50.4,50,50.4z M50,42.4c-1.7,0-3,1.3-3,3s1.3,3,3,3s3-1.3,3-3
			S51.7,42.4,50,42.4z"/>
	</g>
	<path d="M50,55c-0.6,0-1-0.4-1-1v-8.6c0-0.6,0.4-1,1-1s1,0.4,1,1V54C51,54.6,50.6,55,50,55z"/>
</g>
<g>
	<g>
		<path d="M43,44.4c-2.8,0-5-2.2-5-5s2.2-5,5-5s5,2.2,5,5S45.8,44.4,43,44.4z M43,36.4c-1.7,0-3,1.3-3,3s1.3,3,3,3s3-1.3,3-3
			S44.7,36.4,43,36.4z"/>
	</g>
	<path d="M43,49c-0.6,0-1-0.4-1-1v-8.6c0-0.6,0.4-1,1-1s1,0.4,1,1V48C44,48.6,43.6,49,43,49z"/>
</g>
<g>
	<path d="M57.1,30.4c-4.3,0-6.5-0.5-8.6-1c-2.1-0.5-4.1-1-8.1-1c-4,0-6,0.5-8.1,1c-2.1,0.5-4.3,1-8.6,1c-4.3,0-6.5-0.5-8.6-1
		c-2.1-0.5-4.1-1-8.1-1c-0.6,0-1-0.4-1-1s0.4-1,1-1c4.3,0,6.5,0.5,8.6,1c2.1,0.5,4.1,1,8.1,1s6-0.5,8.1-1c2.1-0.5,4.3-1,8.6-1
		c4.3,0,6.5,0.5,8.6,1c2.1,0.5,4.1,1,8.1,1c0.6,0,1,0.4,1,1S57.6,30.4,57.1,30.4z"/>
</g>
<path d="M31.9,54.9c-0.1,0-0.1,0-0.2,0c-0.5-0.1-0.9-0.6-0.8-1.2c0.2-1.4,0.9-2.2,1.6-3.1l0.4-0.4c0.3-0.4,0.7-1,0.8-1.5
	c0.1-0.4,0-0.8-0.2-1.1c-0.9-1.4-4.1-2-5.8-2.3c-0.3-0.1-0.6-0.1-0.9-0.2c-0.4-0.1-0.8-0.2-1.2-0.2c-1.5-0.3-3.1-0.6-4.6-1.2
	c-1.2-0.5-2.5-1.1-3-2.2c-0.5-0.9-0.3-1.6-0.1-2.1c0.6-1.2,2.1-1.8,3.3-2.1c1.2-0.3,2.5-0.5,4.2-0.8c1.5-0.2,3-0.4,4.4-0.5
	c0.6,0,1.3-0.1,2-0.2c1.6-0.1,3.1-0.4,3.3-1.4c0-0.2,0-0.2,0-0.3c-0.6-0.9-3.9-1.1-5.3-1.2c-0.5,0-1-0.1-1.3-0.1
	c-0.7-0.1-1.3-0.2-1.9-0.4L26,32.4c-1.9-0.4-4-1-4.8-2.2c-0.3-0.5-0.1-1.1,0.3-1.4c0.5-0.3,1.1-0.2,1.4,0.3c0.3,0.4,1.5,0.9,3.6,1.4
	l0.4,0.1c0.6,0.1,1.2,0.3,1.8,0.4c0.3,0,0.7,0.1,1.2,0.1c3,0.2,5.7,0.5,6.8,2c0.4,0.6,0.5,1.2,0.4,1.9c-0.6,2.6-3.7,2.9-5.1,3
	c-0.7,0.1-1.3,0.1-2,0.2c-1.4,0.1-2.8,0.2-4.3,0.4c-1.6,0.3-2.9,0.5-4.1,0.8c-1.1,0.3-1.8,0.7-1.9,1c0,0,0,0.1,0.1,0.3
	c0.1,0.2,0.6,0.6,2,1.2c1.3,0.5,2.8,0.8,4.3,1.1c0.4,0.1,0.8,0.2,1.2,0.2c0.2,0,0.5,0.1,0.8,0.2c2.1,0.4,5.7,1.1,7.1,3.1
	c0.5,0.8,0.7,1.7,0.5,2.6c-0.2,0.9-0.7,1.7-1.2,2.4l-0.4,0.5c-0.6,0.8-1,1.3-1.2,2.2C32.8,54.5,32.4,54.9,31.9,54.9z"/>
</svg>
