<?xml version="1.0" encoding="utf-8"?>
<!-- Generator: Adobe Illustrator 16.0.3, SVG Export Plug-In . SVG Version: 6.00 Build 0)  -->
<!DOCTYPE svg PUBLIC "-//W3C//DTD SVG 1.1//EN" "http://www.w3.org/Graphics/SVG/1.1/DTD/svg11.dtd">
<svg version="1.1" id="Ebene_1" xmlns="http://www.w3.org/2000/svg" xmlns:xlink="http://www.w3.org/1999/xlink" fill="#b8cbd9" x="0px" y="0px"
	 width="64px" height="64px" viewBox="0 0 64 64" enable-background="new 0 0 64 64" xml:space="preserve">
<path d="M53,50H11c-0.552,0-1-0.447-1-1V18c0-0.553,0.448-1,1-1h42c0.553,0,1,0.447,1,1v31C54,49.553,53.553,50,53,50z M12,48h40V19
	H12V48z"/>
<path d="M53,26.333H11c-0.552,0-1-0.447-1-1s0.448-1,1-1h42c0.553,0,1,0.447,1,1S53.553,26.333,53,26.333z"/>
<path d="M38,42c-0.256,0-0.512-0.098-0.707-0.293c-0.391-0.391-0.391-1.023,0-1.414L40.586,37l-3.293-3.293
	c-0.391-0.391-0.391-1.023,0-1.414s1.023-0.391,1.414,0l4,4c0.391,0.391,0.391,1.023,0,1.414l-4,4C38.512,41.902,38.256,42,38,42z"
	/>
<path d="M26,42c-0.256,0-0.512-0.098-0.707-0.293l-4-4c-0.391-0.391-0.391-1.023,0-1.414l4-4c0.391-0.391,1.023-0.391,1.414,0
	s0.391,1.023,0,1.414L23.414,37l3.293,3.293c0.391,0.391,0.391,1.023,0,1.414C26.512,41.902,26.256,42,26,42z"/>
<path d="M49,23c-0.553,0-1-0.447-1-1v-1c0-0.553,0.447-1,1-1s1,0.447,1,1v1C50,22.553,49.553,23,49,23z"/>
<path d="M45,23c-0.553,0-1-0.447-1-1v-1c0-0.553,0.447-1,1-1s1,0.447,1,1v1C46,22.553,45.553,23,45,23z"/>
<path d="M41,23c-0.553,0-1-0.447-1-1v-1c0-0.553,0.447-1,1-1s1,0.447,1,1v1C42,22.553,41.553,23,41,23z"/>
<path d="M29,45c-0.131,0-0.265-0.025-0.394-0.081c-0.507-0.218-0.743-0.806-0.525-1.313l6-14c0.217-0.509,0.804-0.747,1.313-0.525
	c0.507,0.218,0.743,0.806,0.525,1.313l-6,14C29.757,44.773,29.388,45,29,45z"/>
</svg>
