<?xml version="1.0" encoding="utf-8"?>
<!-- Generator: Adobe Illustrator 16.0.3, SVG Export Plug-In . SVG Version: 6.00 Build 0)  -->
<!DOCTYPE svg PUBLIC "-//W3C//DTD SVG 1.1//EN" "http://www.w3.org/Graphics/SVG/1.1/DTD/svg11.dtd">
<svg version="1.1" id="Ebene_1" xmlns="http://www.w3.org/2000/svg" xmlns:xlink="http://www.w3.org/1999/xlink" x="0px" y="0px"
	 width="64px" height="64px" viewBox="0 0 64 64" enable-background="new 0 0 64 64" xml:space="preserve">
<g>
	<path fill="none" d="M47.909,39.127L37.26,34.785c-0.346-0.141-0.747-0.205-1.01-0.193c0.106,0.209,0.325,0.506,0.673,0.776
		l9.088,7.051c0.149,0.116,0.315,0.178,0.479,0.178c0.25,0,0.477-0.144,0.621-0.394l1.161-2.013
		c0.119-0.207,0.148-0.428,0.082-0.622C48.288,39.374,48.13,39.218,47.909,39.127z"/>
	<path fill="none" d="M31.572,29.856c-1.442,0-2.616,1.172-2.616,2.614c0,1.441,1.174,2.613,2.616,2.613
		c1.438,0,2.609-1.172,2.609-2.613C34.182,31.028,33.011,29.856,31.572,29.856z"/>
	<path fill="none" d="M31.569,27.71c0.128-0.197,0.275-0.535,0.335-0.971l1.563-11.394c0.033-0.236-0.023-0.452-0.158-0.606
		c-0.135-0.155-0.341-0.24-0.579-0.24h-2.321c-0.238,0-0.444,0.085-0.579,0.24c-0.135,0.154-0.191,0.37-0.158,0.606l1.563,11.394
		C31.294,27.175,31.441,27.513,31.569,27.71z"/>
	<path fill="none" d="M25.878,34.785l-10.648,4.342c-0.221,0.09-0.379,0.247-0.445,0.44c-0.066,0.194-0.037,0.415,0.082,0.622
		l1.162,2.013c0.24,0.415,0.724,0.51,1.101,0.216l9.086-7.051c0.348-0.27,0.566-0.567,0.673-0.776
		c-0.027-0.001-0.058-0.002-0.09-0.002C26.515,34.589,26.188,34.659,25.878,34.785z"/>
	<path d="M19.85,27.185c0.377,0,0.737-0.213,0.907-0.576c0.185-0.396,0.391-0.786,0.612-1.159c0.281-0.475,0.125-1.088-0.35-1.37
		c-0.476-0.283-1.089-0.125-1.371,0.35c-0.254,0.429-0.491,0.876-0.704,1.332c-0.233,0.5-0.018,1.096,0.482,1.33
		C19.564,27.154,19.708,27.185,19.85,27.185z"/>
	<path d="M44.022,25.936c0.188,0.312,0.519,0.485,0.858,0.485c0.175,0,0.353-0.046,0.514-0.143c0.474-0.285,0.627-0.899,0.343-1.373
		c-0.388-0.646-0.83-1.268-1.313-1.85c-0.353-0.424-0.982-0.484-1.408-0.131c-0.425,0.353-0.483,0.983-0.131,1.408
		C43.305,24.837,43.687,25.377,44.022,25.936z"/>
	<path d="M24.353,29.284c0.377,0,0.738-0.214,0.907-0.578l0.117-0.24c0.251-0.492,0.056-1.094-0.436-1.346
		c-0.491-0.25-1.095-0.056-1.346,0.436c-0.052,0.101-0.101,0.203-0.148,0.306c-0.233,0.5-0.017,1.095,0.484,1.329
		C24.068,29.254,24.212,29.284,24.353,29.284z"/>
	<path d="M39.914,27.531c0.198,0.247,0.488,0.375,0.782,0.375c0.219,0,0.439-0.072,0.624-0.219c0.431-0.345,0.501-0.974,0.156-1.405
		c-0.178-0.222-0.364-0.436-0.56-0.644c-0.378-0.402-1.013-0.42-1.413-0.042c-0.402,0.379-0.421,1.012-0.042,1.414
		C39.62,27.178,39.771,27.352,39.914,27.531z"/>
	<path d="M14.929,24.992c0.137,0.063,0.28,0.093,0.421,0.093c0.377,0,0.738-0.214,0.907-0.578c0.414-0.888,0.903-1.745,1.455-2.546
		c0.313-0.455,0.197-1.078-0.258-1.391c-0.453-0.313-1.076-0.197-1.391,0.257c-0.614,0.893-1.159,1.847-1.619,2.835
		C14.211,24.164,14.428,24.758,14.929,24.992z"/>
	<path d="M47.929,24.199c0.18,0.338,0.526,0.53,0.884,0.53c0.158,0,0.319-0.038,0.469-0.118c0.488-0.259,0.673-0.865,0.413-1.353
		c-0.453-0.85-0.973-1.671-1.545-2.442c-0.33-0.443-0.956-0.536-1.398-0.207c-0.443,0.33-0.536,0.956-0.207,1.399
		C47.057,22.7,47.522,23.437,47.929,24.199z"/>
	<path d="M51.264,27.161c-0.149-0.532-0.708-0.838-1.233-0.69c-0.532,0.15-0.841,0.703-0.69,1.234
		c0.438,1.551,0.66,3.153,0.66,4.761c0,1.742-0.27,3.455-0.78,5.114c-0.172-0.119-0.355-0.223-0.555-0.304l-1.354-0.552
		c0.378-1.327,0.58-2.692,0.58-4.071c0-1.285-0.166-2.567-0.494-3.813c-0.141-0.534-0.69-0.851-1.221-0.713
		c-0.534,0.141-0.854,0.688-0.713,1.222c0.284,1.08,0.428,2.192,0.428,3.305c0,1.12-0.153,2.23-0.441,3.312l-1.952-0.796
		c0.174-0.762,0.284-1.538,0.284-2.322c0-0.89-0.114-1.779-0.339-2.643c-0.14-0.535-0.69-0.854-1.22-0.716
		c-0.534,0.139-0.854,0.685-0.716,1.22c0.182,0.699,0.274,1.419,0.274,2.139c0,0.524-0.066,1.042-0.163,1.556l-3.604-1.47
		c-0.552-0.225-1.131-0.344-1.674-0.344c-0.062,0-0.113,0.014-0.173,0.017c0.001-0.046,0.014-0.09,0.014-0.136
		c0-1.85-1.1-3.438-2.673-4.172c0.184-0.403,0.317-0.843,0.378-1.287l1.563-11.394c0.11-0.806-0.121-1.604-0.634-2.192
		S33.543,12.5,32.729,12.5h-2.321c-0.315,0-0.616,0.065-0.904,0.161c-0.134-0.037-0.277-0.051-0.426-0.028
		c-3.864,0.614-7.414,2.346-10.268,5.007c-0.403,0.377-0.426,1.01-0.049,1.414c0.197,0.211,0.464,0.318,0.731,0.318
		c0.244,0,0.489-0.089,0.683-0.269c2.13-1.988,4.699-3.388,7.5-4.123c-0.018,0.209-0.016,0.423,0.014,0.638l0.301,2.192
		c-2.102,0.67-4.044,1.798-5.658,3.296c-0.405,0.376-0.429,1.008-0.054,1.414c0.197,0.212,0.465,0.32,0.733,0.32
		c0.243,0,0.487-0.088,0.68-0.267c1.314-1.219,2.885-2.135,4.578-2.727l0.396,2.888c-0.829,0.371-1.608,0.84-2.315,1.412
		c-0.429,0.347-0.496,0.977-0.148,1.406c0.197,0.245,0.486,0.372,0.778,0.372c0.221,0,0.442-0.073,0.628-0.222
		c0.417-0.337,0.873-0.619,1.346-0.871l0.299,2.181c0.062,0.444,0.194,0.886,0.379,1.289c-1.574,0.735-2.675,2.322-2.675,4.171
		c0,0.046,0.013,0.09,0.014,0.136c-0.059-0.003-0.111-0.017-0.172-0.017c-0.544,0-1.123,0.119-1.676,0.345l-10.648,4.342
		c-0.753,0.307-1.329,0.906-1.582,1.644c-0.253,0.738-0.164,1.565,0.242,2.27l1.162,2.013c0.219,0.379,0.518,0.676,0.854,0.908
		c0.035,0.081,0.063,0.164,0.121,0.236c2.436,3.055,5.696,5.286,9.429,6.45c0.1,0.031,0.199,0.046,0.298,0.046
		c0.426,0,0.821-0.274,0.955-0.703c0.164-0.527-0.13-1.088-0.657-1.252c-2.841-0.886-5.371-2.467-7.409-4.598
		c0.162-0.083,0.32-0.177,0.469-0.292l1.237-0.96c1.575,1.569,3.476,2.799,5.58,3.538c0.109,0.039,0.221,0.057,0.331,0.057
		c0.413,0,0.799-0.258,0.943-0.669c0.184-0.521-0.091-1.092-0.612-1.275c-1.741-0.612-3.322-1.613-4.651-2.886l1.66-1.289
		c1.192,1.055,2.603,1.847,4.146,2.273c0.089,0.025,0.178,0.037,0.267,0.037c0.438,0,0.841-0.291,0.963-0.734
		c0.147-0.533-0.165-1.083-0.698-1.23c-1.128-0.311-2.172-0.858-3.075-1.588l2.995-2.324c0.395-0.307,0.746-0.687,1.015-1.096
		c0.823,0.758,1.912,1.232,3.116,1.232c1.202,0,2.289-0.474,3.11-1.23c0.269,0.409,0.619,0.789,1.014,1.095l9.088,7.051
		c0.504,0.391,1.094,0.598,1.706,0.598c0.97,0,1.85-0.521,2.354-1.394l1.161-2.013c0.224-0.387,0.341-0.812,0.368-1.238
		c0.117-0.102,0.218-0.224,0.278-0.378C51.546,37.295,52,34.904,52,32.466C52,30.674,51.752,28.889,51.264,27.161z M26.215,35.367
		l-9.086,7.051c-0.377,0.294-0.86,0.199-1.101-0.216l-1.162-2.013c-0.119-0.207-0.148-0.428-0.082-0.622
		c0.066-0.193,0.225-0.35,0.445-0.44l10.648-4.342c0.311-0.126,0.637-0.196,0.92-0.196c0.032,0,0.063,0.001,0.09,0.002
		C26.781,34.8,26.563,35.098,26.215,35.367z M29.829,14.739c0.135-0.155,0.341-0.24,0.579-0.24h2.321
		c0.238,0,0.444,0.085,0.579,0.24c0.135,0.154,0.191,0.37,0.158,0.606l-1.563,11.394c-0.06,0.436-0.207,0.774-0.335,0.971
		c-0.128-0.197-0.275-0.535-0.336-0.971l-1.563-11.394C29.638,15.109,29.694,14.894,29.829,14.739z M31.572,35.083
		c-1.442,0-2.616-1.172-2.616-2.613c0-1.441,1.174-2.614,2.616-2.614c1.438,0,2.609,1.172,2.609,2.614
		C34.182,33.911,33.011,35.083,31.572,35.083z M48.272,40.189l-1.161,2.013c-0.145,0.25-0.371,0.394-0.621,0.394
		c-0.164,0-0.33-0.062-0.479-0.178l-9.088-7.051c-0.348-0.27-0.566-0.567-0.673-0.776c0.263-0.011,0.664,0.053,1.01,0.193
		l10.649,4.343c0.221,0.09,0.379,0.247,0.445,0.44C48.421,39.762,48.392,39.982,48.272,40.189z"/>
	<path d="M28.415,46.354c-0.028,0.551,0.395,1.022,0.946,1.051c0.267,0.014,0.533,0.021,0.801,0.021
		c0.843,0,1.693-0.072,2.527-0.214c0.544-0.093,0.91-0.609,0.817-1.154c-0.093-0.543-0.607-0.911-1.153-0.818
		c-0.952,0.162-1.928,0.218-2.887,0.167C28.913,45.366,28.443,45.802,28.415,46.354z"/>
	<path d="M31.37,43.047c0.28-0.043,0.561-0.098,0.839-0.164c0.537-0.128,0.869-0.668,0.74-1.206
		c-0.129-0.537-0.666-0.864-1.205-0.74c-0.224,0.054-0.449,0.098-0.675,0.132c-0.546,0.083-0.922,0.594-0.838,1.14
		c0.075,0.495,0.501,0.849,0.987,0.849C31.269,43.058,31.319,43.055,31.37,43.047z"/>
	<path d="M32.538,49.571c-0.665,0.077-1.366,0.109-2.017,0.115c-0.502,0-1.013-0.022-1.519-0.067
		c-0.562-0.051-1.035,0.359-1.084,0.909s0.358,1.035,0.908,1.083c0.564,0.05,1.134,0.075,1.693,0.075c0.005,0,0.011,0,0.017,0
		c0.743,0,1.494-0.043,2.229-0.127c0.549-0.063,0.942-0.56,0.879-1.108C33.583,49.901,33.094,49.507,32.538,49.571z"/>
</g>
</svg>
