<?xml version="1.0" encoding="utf-8"?>
<!-- Generator: Adobe Illustrator 16.0.3, SVG Export Plug-In . SVG Version: 6.00 Build 0)  -->
<!DOCTYPE svg PUBLIC "-//W3C//DTD SVG 1.1//EN" "http://www.w3.org/Graphics/SVG/1.1/DTD/svg11.dtd">
<svg version="1.1" id="Ebene_1" xmlns="http://www.w3.org/2000/svg" xmlns:xlink="http://www.w3.org/1999/xlink" x="0px" y="0px"
	 width="64px" height="64px" viewBox="0 0 64 64" enable-background="new 0 0 64 64" xml:space="preserve">
<line fill="none" stroke="#000000" stroke-width="2" stroke-linecap="round" stroke-linejoin="round" x1="48.483" y1="22.714" x2="53.054" y2="28.427"/>
<polyline fill="none" stroke="#000000" stroke-width="2" stroke-linecap="round" stroke-linejoin="round" points="35.054,21.427 
	41.054,13.427 42.462,15.188 "/>
<polyline fill="none" stroke="#000000" stroke-width="2" stroke-linecap="round" stroke-linejoin="round" points="12.054,27.187 
	25.522,8.427 39.054,27.427 "/>
<polyline fill="none" stroke="#000000" stroke-width="2" stroke-linecap="round" stroke-linejoin="round" points="29.107,13.427 
	25.554,18.427 22.107,13.427 "/>
<g>
	<g>
		<path fill="none" stroke="#000000" stroke-width="2" stroke-linecap="round" stroke-linejoin="round" d="M42.054,18.427
			c0-2.2,1.8-4,4-4s4,1.8,4,4s-1.8,4-4,4S42.054,20.627,42.054,18.427z"/>
	</g>
	
		<line fill="none" stroke="#000000" stroke-width="2" stroke-linecap="round" stroke-linejoin="round" x1="46.055" y1="27" x2="46.055" y2="18.427"/>
</g>
<g>
	<g>
		<path fill="none" stroke="#000000" stroke-width="2" stroke-linecap="round" stroke-linejoin="round" d="M10,39.427
			c0-2.2,1.8-4,4-4s4,1.8,4,4s-1.8,4-4,4S10,41.627,10,39.427z"/>
	</g>
	
		<line fill="none" stroke="#000000" stroke-width="2" stroke-linecap="round" stroke-linejoin="round" x1="14.001" y1="48" x2="14.001" y2="39.427"/>
</g>
<g>
	<g>
		<path fill="none" stroke="#000000" stroke-width="2" stroke-linecap="round" stroke-linejoin="round" d="M46,45.427
			c0-2.2,1.8-4,4-4s4,1.8,4,4s-1.8,4-4,4S46,47.627,46,45.427z"/>
	</g>
	
		<line fill="none" stroke="#000000" stroke-width="2" stroke-linecap="round" stroke-linejoin="round" x1="50.001" y1="54" x2="50.001" y2="45.427"/>
</g>
<g>
	<g>
		<path fill="none" stroke="#000000" stroke-width="2" stroke-linecap="round" stroke-linejoin="round" d="M39,39.427
			c0-2.2,1.8-4,4-4s4,1.8,4,4s-1.8,4-4,4S39,41.627,39,39.427z"/>
	</g>
	
		<line fill="none" stroke="#000000" stroke-width="2" stroke-linecap="round" stroke-linejoin="round" x1="43.001" y1="48" x2="43.001" y2="39.427"/>
</g>
<g>
	<path fill="none" stroke="#000000" stroke-width="2" stroke-linecap="round" stroke-linejoin="round" d="M57.054,29.427
		c-8.333,0-8.333-2-16.665-2c-8.334,0-8.334,2-16.668,2s-8.334-2-16.667-2"/>
</g>
<path fill="none" stroke="#000000" stroke-width="2" stroke-linecap="round" stroke-linejoin="round" d="M22.001,29.594
	c0.652,1.043,3.159,1.569,4.333,1.834c0.689,0.156,1.422,0.333,2.148,0.44c1.614,0.238,8.131,0.116,7.523,2.825
	c-0.392,1.748-2.569,2.062-4.201,2.212c-2.157,0.199-4.166,0.263-6.324,0.61c-1.385,0.223-2.783,0.475-4.12,0.784
	c-1.142,0.264-3.382,1.048-2.525,2.695c0.417,0.802,1.728,1.368,2.513,1.688c1.809,0.737,3.787,1.025,5.675,1.425
	c2.084,0.441,8.396,1.133,7.687,4.735c-0.142,0.718-0.607,1.386-1.036,1.935c-0.812,1.042-1.529,1.743-1.766,3.096"/>
</svg>
