<?xml version="1.0" encoding="utf-8"?>
<!-- Generator: Adobe Illustrator 16.0.3, SVG Export Plug-In . SVG Version: 6.00 Build 0)  -->
<!DOCTYPE svg PUBLIC "-//W3C//DTD SVG 1.1//EN" "http://www.w3.org/Graphics/SVG/1.1/DTD/svg11.dtd">
<svg version="1.1" id="Ebene_1" xmlns="http://www.w3.org/2000/svg" xmlns:xlink="http://www.w3.org/1999/xlink" fill="#b8cbd9" x="0px" y="0px"
	 width="64px" height="64px" viewBox="0 0 64 64" enable-background="new 0 0 64 64" xml:space="preserve">
<g>
	<path d="M39.878,34.04c-3.44,0-6.24-2.799-6.24-6.24c0-3.439,2.8-6.237,6.24-6.237c3.439,0,6.237,2.798,6.237,6.237
		C46.115,31.241,43.317,34.04,39.878,34.04z M39.878,23.563c-2.338,0-4.24,1.9-4.24,4.237c0,2.338,1.902,4.24,4.24,4.24
		c2.337,0,4.237-1.902,4.237-4.24C44.115,25.464,42.215,23.563,39.878,23.563z"/>
	<path d="M27.498,43.563c-2.652,0-4.81-2.157-4.81-4.81c0-2.652,2.157-4.81,4.81-4.81c2.651,0,4.808,2.158,4.808,4.81
		C32.306,41.406,30.149,43.563,27.498,43.563z M27.498,35.944c-1.549,0-2.81,1.26-2.81,2.81s1.261,2.81,2.81,2.81
		c1.548,0,2.808-1.26,2.808-2.81S29.046,35.944,27.498,35.944z"/>
	<path d="M31.307,39.754c-0.323,0-0.641-0.156-0.833-0.445c-0.307-0.459-0.183-1.081,0.277-1.387l8.572-5.714
		c0.461-0.307,1.08-0.183,1.387,0.277c0.307,0.459,0.183,1.081-0.277,1.387l-8.572,5.714C31.689,39.7,31.497,39.754,31.307,39.754z"
		/>
	<path d="M27.498,35.944c-0.238,0-0.477-0.084-0.667-0.255c-0.412-0.369-0.446-1-0.078-1.412l7.226-8.064
		c0.37-0.41,1.003-0.445,1.412-0.077c0.412,0.369,0.446,1,0.078,1.412l-7.226,8.064C28.045,35.832,27.772,35.944,27.498,35.944z"/>
	<path d="M25.254,36.678c-0.179,0-0.358-0.047-0.522-0.147l-9.255-5.678c-0.471-0.289-0.618-0.905-0.329-1.375
		c0.288-0.472,0.902-0.618,1.376-0.33l9.255,5.678c0.471,0.289,0.618,0.905,0.329,1.375C25.919,36.509,25.59,36.678,25.254,36.678z"
		/>
	<path d="M23.688,40.706c-0.178,0-0.358-0.047-0.521-0.147l-7.689-4.706c-0.471-0.289-0.619-0.904-0.33-1.375
		c0.288-0.471,0.902-0.62,1.375-0.331l7.689,4.706c0.471,0.289,0.619,0.904,0.33,1.375C24.354,40.536,24.025,40.706,23.688,40.706z"
		/>
</g>
<path d="M32.5,50.231c-10.201,0-18.5-8.299-18.5-18.5s8.299-18.5,18.5-18.5S51,21.53,51,31.731S42.701,50.231,32.5,50.231z
	 M32.5,15.231c-9.098,0-16.5,7.402-16.5,16.5s7.402,16.5,16.5,16.5S49,40.83,49,31.731S41.598,15.231,32.5,15.231z"/>
<path d="M48,50c-0.256,0-0.512-0.098-0.707-0.293l-33-33c-0.391-0.391-0.391-1.023,0-1.414s1.023-0.391,1.414,0l33,33
	c0.391,0.391,0.391,1.023,0,1.414C48.512,49.902,48.256,50,48,50z"/>
</svg>
