<?xml version="1.0" encoding="utf-8"?>
<!-- Generator: Adobe Illustrator 21.0.2, SVG Export Plug-In . SVG Version: 6.00 Build 0)  -->
<svg version="1.1" id="Ebene_1" xmlns="http://www.w3.org/2000/svg" xmlns:xlink="http://www.w3.org/1999/xlink" x="0px" y="0px"
	 viewBox="0 0 64 64" style="enable-background:new 0 0 64 64;" xml:space="preserve">
<style type="text/css">
	.st0{fill:none;stroke:#000000;stroke-width:2;stroke-linecap:round;stroke-linejoin:round;stroke-miterlimit:10;}
</style>
<path d="M32.5,52C24,52,17,45,17,36.5c0-1.7,0.3-3.3,0.8-4.8c-2.4,0.2-4.7-0.6-6.4-2.3c-1.7-1.7-2.5-4-2.3-6.5
	c0.2-2.5,1.3-4.8,3.2-6.7c3.9-3.9,9.8-4.3,13.2-0.9c1.7,1.7,2.5,4,2.3,6.5c2.9-0.9,6-1,8.9-0.1c-0.5-2.8,0.3-5.5,2.2-7.3
	c3.4-3.4,9.3-3,13.2,0.9l0,0l0,0c3.9,3.9,4.3,9.8,0.9,13.2c-1.6,1.6-3.8,2.4-6.2,2.3c0.7,1.8,1.1,3.8,1.1,5.8C48,45,41,52,32.5,52z
	 M19.4,29.4c0.3,0,0.6,0.1,0.8,0.4c0.2,0.3,0.3,0.7,0.1,1.1c-0.8,1.8-1.3,3.7-1.3,5.7C19,43.9,25.1,50,32.5,50
	C39.9,50,46,43.9,46,36.5c0-2.3-0.6-4.6-1.7-6.6c-0.2-0.3-0.2-0.8,0.1-1.1c0.2-0.3,0.7-0.5,1-0.4c2.4,0.6,4.7,0.1,6.3-1.4
	c2.6-2.6,2.2-7.3-0.9-10.4l0,0c-3.1-3.1-7.8-3.5-10.4-0.9c-1.7,1.7-2.2,4.5-1.2,7.2c0.1,0.4,0,0.8-0.2,1.1c-0.3,0.3-0.7,0.4-1.1,0.2
	c-3.5-1.5-7.4-1.5-10.9,0.1c-0.4,0.2-0.8,0.1-1.1-0.2c-0.3-0.3-0.4-0.6-0.3-1c0.7-2.4,0.1-4.8-1.4-6.4c-2.6-2.6-7.3-2.2-10.4,0.9
	c-1.5,1.5-2.5,3.5-2.6,5.5C11,25,11.6,26.8,12.8,28c1.5,1.5,3.9,2.1,6.3,1.4C19.2,29.4,19.3,29.4,19.4,29.4z"/>
<path d="M35,40c-0.6,0-1-0.4-1-1v-5.2c0-0.6,0.4-1,1-1s1,0.4,1,1V39C36,39.6,35.6,40,35,40z"/>
<path d="M30,40c-0.6,0-1-0.4-1-1v-5.2c0-0.6,0.4-1,1-1s1,0.4,1,1V39C31,39.6,30.6,40,30,40z"/>
<path class="st0" d="M32.5,31.1"/>
<path d="M19,42.4c-0.6,0-1-0.4-1-1c0-2.1,1.5-3.8,3.4-4.3c0.1-0.1,0.3-0.1,0.4-0.1H23v-5.7c0-2.9,2.4-5.3,5.3-5.3s5.3,2.4,5.3,5.3
	c0,0.6-0.4,1-1,1c-0.6,0-1-0.4-1-1c0-1.8-1.5-3.3-3.3-3.3S25,29.5,25,31.3V38c0,0.6-0.4,1-1,1h-1.6c-1.3,0-2.4,1.1-2.4,2.4
	C20,41.9,19.6,42.4,19,42.4z"/>
<path d="M46,42.4c-0.6,0-1-0.4-1-1c0-1.3-1.1-2.4-2.4-2.4H41c-0.6,0-1-0.4-1-1v-6.7c0-1.8-1.5-3.3-3.3-3.3s-3.3,1.5-3.3,3.3
	c0,0.6-0.4,1-1,1c-0.6,0-1-0.4-1-1c0-2.9,2.4-5.3,5.3-5.3s5.3,2.4,5.3,5.3V37h0.6c2.4,0,4.4,2,4.4,4.4C47,41.9,46.6,42.4,46,42.4z"
	/>
<path d="M33.5,46h-2c-1.4,0-2.5-1.1-2.5-2.5s1.1-2.5,2.5-2.5h2c1.4,0,2.5,1.1,2.5,2.5S34.9,46,33.5,46z M31.5,43
	c-0.3,0-0.5,0.2-0.5,0.5s0.2,0.5,0.5,0.5h2c0.3,0,0.5-0.2,0.5-0.5S33.8,43,33.5,43H31.5z"/>
</svg>
