<?xml version="1.0" encoding="utf-8"?>
<!-- Generator: Adobe Illustrator 16.0.3, SVG Export Plug-In . SVG Version: 6.00 Build 0)  -->
<!DOCTYPE svg PUBLIC "-//W3C//DTD SVG 1.1//EN" "http://www.w3.org/Graphics/SVG/1.1/DTD/svg11.dtd">
<svg version="1.1" id="Ebene_1" xmlns="http://www.w3.org/2000/svg" xmlns:xlink="http://www.w3.org/1999/xlink" fill="#b8cbd9" x="0px" y="0px"
	 width="64px" height="64px" viewBox="0 0 64 64" enable-background="new 0 0 64 64" xml:space="preserve">
<path d="M35,30h-4c-0.552,0-1-0.448-1-1v-7c0-0.552,0.448-1,1-1h4c0.552,0,1,0.448,1,1v7C36,29.552,35.552,30,35,30z M32,28h2v-5h-2
	V28z"/>
<path d="M48,56H17c-0.552,0-1-0.448-1-1v-8c0-0.552,0.448-1,1-1h31c0.553,0,1,0.448,1,1v8C49,55.552,48.553,56,48,56z M18,54h29v-6
	H18V54z"/>
<path d="M40.52,42c-0.004,0-0.012,0.001-0.02,0h-15c-0.323,0-0.627-0.156-0.814-0.42c-0.188-0.263-0.236-0.601-0.131-0.907l2.764-8
	C27.458,32.271,27.837,32,28.264,32h9.471c0.427,0,0.806,0.271,0.945,0.673l2.704,7.822c0.087,0.148,0.136,0.32,0.136,0.504
	C41.52,41.552,41.072,42,40.52,42z M26.903,40h12.193l-2.074-6h-8.046L26.903,40z"/>
<path d="M39,34H27c-1.654,0-3-1.346-3-3s1.346-3,3-3h12c1.654,0,3,1.346,3,3S40.654,34,39,34z M27,30c-0.551,0-1,0.449-1,1
	s0.449,1,1,1h12c0.552,0,1-0.449,1-1s-0.448-1-1-1H27z"/>
<path d="M48,48H17c-2.206,0-4-1.794-4-4s1.794-4,4-4h31c2.206,0,4,1.794,4,4S50.206,48,48,48z M17,42c-1.103,0-2,0.897-2,2
	s0.897,2,2,2h31c1.103,0,2-0.897,2-2s-0.897-2-2-2H17z"/>
<path d="M46,25c-0.553,0-1-0.448-1-1v-6.396C45,14.514,42.532,12,39.5,12S34,14.514,34,17.604c0,0.552-0.448,1-1,1s-1-0.448-1-1
	C32,13.411,35.364,10,39.5,10s7.5,3.411,7.5,7.604V24C47,24.552,46.553,25,46,25z"/>
<path d="M46,34c-0.553,0-1-0.448-1-1v-4.376c0-0.552,0.447-1,1-1s1,0.448,1,1V33C47,33.552,46.553,34,46,34z"/>
<path d="M46,39c-0.553,0-1-0.448-1-1v-1c0-0.552,0.447-1,1-1s1,0.448,1,1v1C47,38.552,46.553,39,46,39z"/>
<path d="M20.05,25c-0.552,0-1-0.448-1-1v-6.396c0-4.192,3.353-7.604,7.474-7.604c4.065,0,7.383,3.317,7.474,7.43
	C34,17.451,34,17.472,34,17.493v0.111c0,0.552-0.448,1-1,1s-1-0.448-1-1C32,14.514,29.543,12,26.524,12
	c-3.019,0-5.474,2.514-5.474,5.604V24C21.05,24.552,20.603,25,20.05,25z"/>
<path d="M20,34c-0.552,0-1-0.448-1-1v-4.376c0-0.552,0.448-1,1-1s1,0.448,1,1V33C21,33.552,20.552,34,20,34z"/>
<path d="M20,39c-0.552,0-1-0.448-1-1v-1c0-0.552,0.448-1,1-1s1,0.448,1,1v1C21,38.552,20.552,39,20,39z"/>
<path d="M37,23h-8c-0.552,0-1-0.448-1-1s0.448-1,1-1h8c0.553,0,1,0.448,1,1S37.553,23,37,23z"/>
</svg>
