<?xml version="1.0" encoding="utf-8"?>
<!-- Generator: Adobe Illustrator 16.0.3, SVG Export Plug-In . SVG Version: 6.00 Build 0)  -->
<!DOCTYPE svg PUBLIC "-//W3C//DTD SVG 1.1//EN" "http://www.w3.org/Graphics/SVG/1.1/DTD/svg11.dtd">
<svg version="1.1" id="Ebene_1" xmlns="http://www.w3.org/2000/svg" xmlns:xlink="http://www.w3.org/1999/xlink" fill="#b8cbd9" x="0px" y="0px"
	 width="64px" height="64px" viewBox="0 0 64 64" enable-background="new 0 0 64 64" xml:space="preserve">
<path d="M31,44c-0.153,0-0.307-0.035-0.447-0.105l-24-12c-0.494-0.247-0.694-0.848-0.447-1.342s0.846-0.693,1.342-0.447L31,41.882
	l5.469-2.734c0.496-0.246,1.095-0.047,1.342,0.447c0.247,0.494,0.047,1.095-0.447,1.342l-5.916,2.958C31.307,43.965,31.153,44,31,44
	z"/>
<path d="M47.651,35.675c-0.367,0-0.72-0.202-0.896-0.553c-0.247-0.494-0.047-1.095,0.447-1.342l7.35-3.675
	c0.495-0.246,1.095-0.047,1.342,0.447s0.047,1.095-0.447,1.342l-7.35,3.675C47.954,35.641,47.801,35.675,47.651,35.675z"/>
<path d="M31,49c-0.153,0-0.307-0.035-0.447-0.105l-24-12c-0.494-0.247-0.694-0.848-0.447-1.342s0.846-0.693,1.342-0.447L31,46.882
	l7.554-3.776c0.495-0.246,1.095-0.047,1.342,0.447s0.046,1.095-0.447,1.342l-8.001,4C31.307,48.965,31.153,49,31,49z"/>
<path d="M49.301,39.851c-0.367,0-0.72-0.202-0.896-0.553c-0.247-0.494-0.047-1.095,0.447-1.342l5.7-2.851
	c0.495-0.246,1.095-0.047,1.342,0.447s0.047,1.095-0.447,1.342l-5.7,2.851C49.604,39.816,49.451,39.851,49.301,39.851z"/>
<path d="M31,39c-0.153,0-0.307-0.035-0.447-0.105l-24-11.998C6.214,26.727,6,26.381,6,26.002s0.214-0.725,0.553-0.895l24-12.002
	c0.281-0.141,0.613-0.141,0.895,0l24,12.002C55.786,25.277,56,25.623,56,26.002s-0.214,0.725-0.553,0.895l-12.316,6.157
	c-0.496,0.245-1.095,0.047-1.342-0.447c-0.247-0.494-0.046-1.095,0.447-1.342l10.527-5.263L31,15.118L9.236,26.002L31,36.882
	l3.75-1.874c0.496-0.246,1.095-0.047,1.342,0.447c0.247,0.494,0.046,1.095-0.447,1.342l-4.197,2.098C31.306,38.965,31.153,39,31,39z
	"/>
<g>
	<path d="M31,34c-0.552,0-1-0.447-1-1c0-2.43,2.57-5,5-5c0.552,0,1,0.447,1,1s-0.448,1-1,1c-1.346,0-3,1.654-3,3
		C32,33.553,31.552,34,31,34z"/>
	<path d="M31,34c-0.552,0-1-0.447-1-1c0-1.346-1.654-3-3-3c-0.552,0-1-0.447-1-1s0.448-1,1-1c2.43,0,5,2.57,5,5
		C32,33.553,31.552,34,31,34z"/>
	<path d="M31,34c-0.552,0-1-0.447-1-1v-6c0-0.553,0.448-1,1-1s1,0.447,1,1v6C32,33.553,31.552,34,31,34z"/>
</g>
<g>
	<path d="M31,24c-0.552,0-1-0.447-1-1c0-2.43,2.57-5,5-5c0.552,0,1,0.447,1,1s-0.448,1-1,1c-1.346,0-3,1.654-3,3
		C32,23.553,31.552,24,31,24z"/>
	<path d="M31,24c-0.552,0-1-0.447-1-1c0-1.346-1.654-3-3-3c-0.552,0-1-0.447-1-1s0.448-1,1-1c2.43,0,5,2.57,5,5
		C32,23.553,31.552,24,31,24z"/>
	<path d="M31,24c-0.552,0-1-0.447-1-1v-6c0-0.553,0.448-1,1-1s1,0.447,1,1v6C32,23.553,31.552,24,31,24z"/>
</g>
<g>
	<path d="M40,29c-0.552,0-1-0.447-1-1c0-2.43,2.57-5,5-5c0.552,0,1,0.447,1,1s-0.448,1-1,1c-1.346,0-3,1.654-3,3
		C41,28.553,40.552,29,40,29z"/>
	<path d="M40,29c-0.552,0-1-0.447-1-1c0-1.346-1.654-3-3-3c-0.552,0-1-0.447-1-1s0.448-1,1-1c2.43,0,5,2.57,5,5
		C41,28.553,40.552,29,40,29z"/>
	<path d="M40,29c-0.552,0-1-0.447-1-1v-6c0-0.553,0.448-1,1-1s1,0.447,1,1v6C41,28.553,40.552,29,40,29z"/>
</g>
<g>
	<path d="M22,29c-0.552,0-1-0.447-1-1c0-2.43,2.57-5,5-5c0.552,0,1,0.447,1,1s-0.448,1-1,1c-1.346,0-3,1.654-3,3
		C23,28.553,22.552,29,22,29z"/>
	<path d="M22,29c-0.552,0-1-0.447-1-1c0-1.346-1.654-3-3-3c-0.552,0-1-0.447-1-1s0.448-1,1-1c2.43,0,5,2.57,5,5
		C23,28.553,22.552,29,22,29z"/>
	<path d="M22,29c-0.552,0-1-0.447-1-1v-6c0-0.553,0.448-1,1-1s1,0.447,1,1v6C23,28.553,22.552,29,22,29z"/>
</g>
<path d="M31,54c-0.153,0-0.307-0.035-0.447-0.105l-24-12c-0.494-0.247-0.694-0.848-0.447-1.342c0.247-0.493,0.846-0.693,1.342-0.447
	L31,51.882l13.687-6.843c0.494-0.246,1.095-0.047,1.342,0.447c0.247,0.494,0.047,1.095-0.447,1.342l-14.134,7.066
	C31.307,53.965,31.153,54,31,54z"/>
<path d="M50.501,44.249c-0.367,0-0.72-0.202-0.896-0.553c-0.247-0.494-0.046-1.095,0.447-1.342l4.5-2.249
	c0.495-0.246,1.095-0.046,1.342,0.447c0.247,0.494,0.046,1.095-0.447,1.342l-4.5,2.249C50.804,44.215,50.651,44.249,50.501,44.249z"
	/>
<g>
	<g>
		<path d="M42,43c-0.063,0-0.126-0.006-0.189-0.018c-0.326-0.063-0.6-0.283-0.73-0.589l-3-7c-0.161-0.375-0.077-0.812,0.212-1.101
			c0.289-0.29,0.727-0.373,1.101-0.212l7,3c0.305,0.131,0.525,0.404,0.588,0.729c0.063,0.326-0.04,0.662-0.275,0.896l-4,4
			C42.518,42.896,42.263,43,42,43z M40.904,36.904l1.434,3.344l1.911-1.911L40.904,36.904z"/>
	</g>
	<g>
		<path d="M47,44c-0.256,0-0.512-0.098-0.707-0.293l-2.828-2.829c-0.391-0.391-0.391-1.023,0-1.414s1.023-0.391,1.414,0l2.828,2.829
			c0.391,0.391,0.391,1.023,0,1.414C47.512,43.902,47.256,44,47,44z"/>
	</g>
</g>
</svg>
