<?xml version="1.0" encoding="utf-8"?>
<!-- Generator: Adobe Illustrator 21.0.2, SVG Export Plug-In . SVG Version: 6.00 Build 0)  -->
<svg version="1.1" id="Ebene_1" xmlns="http://www.w3.org/2000/svg" xmlns:xlink="http://www.w3.org/1999/xlink" x="0px" y="0px"
	 viewBox="0 0 64 64" style="enable-background:new 0 0 64 64;" xml:space="preserve">
<path d="M49.8,23c-3.3,0-6-2.7-6-6s2.7-6,6-6s6,2.7,6,6S53.1,23,49.8,23z M49.8,13c-2.2,0-4,1.8-4,4s1.8,4,4,4s4-1.8,4-4
	S52,13,49.8,13z"/>
<path d="M43.6,33C43.6,33,43.6,33,43.6,33H33c-2.2,0-4-1.8-4-4c0-2,1.5-3.6,3.4-3.9c0.2-2.9,2.7-5.1,5.6-5.1c2.6,0,4.9,1.8,5.5,4.2
	h0c2.4,0,4.4,2,4.4,4.4c0,1.2-0.5,2.3-1.3,3.1C45.9,32.5,44.8,33,43.6,33z M33,27.1c-1.1,0-2,0.9-2,2s0.9,2,2,2h10.6h0
	c0.6,0,1.2-0.2,1.7-0.7c0.5-0.5,0.7-1,0.7-1.7c0-1.3-1.1-2.4-2.4-2.4h-0.9c-0.5,0-1-0.4-1-0.9C41.6,23.5,40,22,38.1,22
	c-2,0-3.7,1.6-3.7,3.6v0.5c0,0.6-0.4,1-1,1H33z"/>
<path d="M30.8,31.9h-7.7c-2.7,0-5-2.2-5-5s2.2-5,5-5h0.2c0.7-2.9,3.3-5,6.3-5c3,0,5.7,2.1,6.3,5.1c0.1,0.3,0,0.7-0.3,0.9
	c-0.7,0.7-1.1,1.6-1.1,2.6v0.5c0,0.6-0.4,1-1,1H33c-1.1,0-2,0.9-2,2c0,0.6,0.3,1,0.5,1.3c0.3,0.3,0.3,0.7,0.1,1.1
	S31.2,31.9,30.8,31.9z M23.1,24c-1.6,0-3,1.3-3,3s1.3,3,3,3h6.1c-0.1-0.3-0.1-0.6-0.1-0.9c0-2,1.5-3.6,3.4-3.9
	c0.1-1.2,0.5-2.2,1.3-3.1c-0.6-1.8-2.3-3-4.2-3c-2.3,0-4.3,1.8-4.5,4.1c0,0.5-0.5,0.9-1,0.9H23.1z"/>
<path d="M29.6,51.5c-0.1,0-0.2,0-0.2,0c-0.5-0.1-0.9-0.7-0.7-1.2l0.2-1c0.1-0.5,0.7-0.9,1.2-0.7c0.5,0.1,0.9,0.7,0.7,1.2l-0.2,1
	C30.5,51.2,30.1,51.5,29.6,51.5z M31,45.7c-0.1,0-0.2,0-0.2,0c-0.5-0.1-0.9-0.7-0.7-1.2l0.5-1.9c0.1-0.5,0.7-0.9,1.2-0.7
	c0.5,0.1,0.9,0.7,0.7,1.2L32,44.9C31.9,45.4,31.5,45.7,31,45.7z M32.7,38.9c-0.1,0-0.2,0-0.2,0c-0.5-0.1-0.9-0.7-0.7-1.2l0.9-3.9
	c0.1-0.5,0.7-0.9,1.2-0.7c0.5,0.1,0.9,0.7,0.7,1.2l-0.9,3.9C33.5,38.6,33.1,38.9,32.7,38.9z"/>
<path d="M25.6,51.5c-0.1,0-0.2,0-0.2,0c-0.5-0.1-0.9-0.7-0.7-1.2l0.9-3.9c0.1-0.5,0.7-0.9,1.2-0.7c0.5,0.1,0.9,0.7,0.7,1.2l-0.9,3.9
	C26.5,51.2,26.1,51.5,25.6,51.5z M27.7,42.8c-0.1,0-0.2,0-0.2,0c-0.5-0.1-0.9-0.7-0.7-1.2l0.5-1.9c0.1-0.5,0.7-0.9,1.2-0.7
	c0.5,0.1,0.9,0.7,0.7,1.2L28.7,42C28.6,42.5,28.2,42.8,27.7,42.8z M29.4,36c-0.1,0-0.2,0-0.2,0c-0.5-0.1-0.9-0.7-0.7-1.2l0.2-1
	c0.1-0.5,0.7-0.9,1.2-0.7c0.5,0.1,0.9,0.7,0.7,1.2l-0.2,1C30.2,35.7,29.8,36,29.4,36z"/>
<path d="M17.6,51.5c-0.1,0-0.2,0-0.2,0c-0.5-0.1-0.9-0.7-0.7-1.2l0.9-3.9c0.1-0.5,0.7-0.9,1.2-0.7c0.5,0.1,0.9,0.7,0.7,1.2l-0.9,3.9
	C18.5,51.2,18.1,51.5,17.6,51.5z M19.7,42.8c-0.1,0-0.2,0-0.2,0c-0.5-0.1-0.9-0.7-0.7-1.2l0.5-1.9c0.1-0.5,0.7-0.9,1.2-0.7
	c0.5,0.1,0.9,0.7,0.7,1.2L20.7,42C20.6,42.5,20.2,42.8,19.7,42.8z M21.4,36c-0.1,0-0.2,0-0.2,0c-0.5-0.1-0.9-0.7-0.7-1.2l0.2-1
	c0.1-0.5,0.7-0.9,1.2-0.7c0.5,0.1,0.9,0.7,0.7,1.2l-0.2,1C22.2,35.7,21.8,36,21.4,36z"/>
<path d="M21.6,51.5c-0.1,0-0.2,0-0.2,0c-0.5-0.1-0.9-0.7-0.7-1.2l0.2-1c0.1-0.5,0.7-0.9,1.2-0.7c0.5,0.1,0.9,0.7,0.7,1.2l-0.2,1
	C22.5,51.2,22.1,51.5,21.6,51.5z M23,45.7c-0.1,0-0.2,0-0.2,0c-0.5-0.1-0.9-0.7-0.7-1.2l0.5-1.9c0.1-0.5,0.7-0.9,1.2-0.7
	c0.5,0.1,0.9,0.7,0.7,1.2L24,44.9C23.9,45.4,23.5,45.7,23,45.7z M24.7,38.9c-0.1,0-0.2,0-0.2,0c-0.5-0.1-0.9-0.7-0.7-1.2l0.9-3.9
	c0.1-0.5,0.7-0.9,1.2-0.7c0.5,0.1,0.9,0.7,0.7,1.2l-0.9,3.9C25.5,38.6,25.1,38.9,24.7,38.9z"/>
<g>
	<path d="M53,50.1h-8c-0.3,0-0.6-0.2-0.8-0.4C44,49.4,44,49.1,44,48.8l4-12.1c0.1-0.4,0.5-0.7,1-0.7s0.8,0.3,1,0.7l4,12.1
		c0.1,0.3,0,0.6-0.1,0.9C53.6,49.9,53.3,50.1,53,50.1z M46.4,48.1h5.2L49,40.2L46.4,48.1z"/>
	<path d="M49,52.1c-0.6,0-1-0.4-1-1v-4c0-0.6,0.4-1,1-1s1,0.4,1,1v4C50,51.6,49.5,52.1,49,52.1z"/>
</g>
<path d="M13.8,23c-3.3,0-6-2.7-6-6s2.7-6,6-6c0.9,0,1.7,0.2,2.5,0.6c0.3,0.1,0.5,0.5,0.6,0.8s-0.1,0.7-0.4,0.9
	c-0.1,0.1-1.8,1.4-1.8,3.8c0,2.4,1.6,3.8,1.7,3.8c0.3,0.2,0.4,0.6,0.3,0.9c-0.1,0.3-0.3,0.6-0.6,0.8C15.3,22.8,14.6,23,13.8,23z
	 M13.8,13c-2.2,0-4,1.8-4,4c0,2.3,1.9,4.1,4.1,4c-0.6-0.9-1.2-2.3-1.2-4c0-1.7,0.7-3.1,1.3-4C13.9,13,13.8,13,13.8,13z"/>
<g>
	<g>
		<path d="M40,47c-2.8,0-5-2.2-5-5s2.2-5,5-5s5,2.2,5,5S42.8,47,40,47z M40,39c-1.7,0-3,1.3-3,3s1.3,3,3,3s3-1.3,3-3S41.7,39,40,39z
			"/>
		<path d="M40,47c-2.8,0-5-2.2-5-5s2.2-5,5-5s5,2.2,5,5S42.8,47,40,47z M40,39c-1.7,0-3,1.3-3,3s1.3,3,3,3s3-1.3,3-3S41.7,39,40,39z
			"/>
	</g>
	<path d="M40,51.6c-0.6,0-1-0.4-1-1V42c0-0.6,0.4-1,1-1s1,0.4,1,1v8.6C41,51.1,40.6,51.6,40,51.6z"/>
</g>
<g>
	<path d="M56,52c-0.2,0-0.4,0-0.5-0.2c-1-0.6-2.1-1.2-3.2-1.9c-0.5-0.3-0.7-0.9-0.4-1.4c0.3-0.5,0.9-0.7,1.4-0.4
		c1.2,0.6,2.3,1.3,3.3,1.9c0.5,0.3,0.6,0.9,0.3,1.4C56.7,51.8,56.3,52,56,52z"/>
	<path d="M40,47c-2.2,0-4.1-1.4-4.8-3.5c-8.2-2.1-17-3.3-26.3-3.5c-0.6,0-1-0.5-1-1c0-0.6,0.4-1,1-1c9.6,0.2,18.8,1.4,27.3,3.7
		c0.4,0.1,0.7,0.4,0.7,0.8c0.2,1.5,1.5,2.5,2.9,2.5c0.8,0,1.6-0.3,2.1-0.9c0.3-0.3,0.7-0.4,1.1-0.2c1,0.4,2.1,0.8,3.2,1.2
		c0.5,0.2,0.8,0.8,0.6,1.3c-0.2,0.5-0.8,0.8-1.3,0.6c-0.9-0.4-1.7-0.7-2.6-1C42.2,46.6,41.1,47,40,47z"/>
</g>
</svg>
