<?xml version="1.0" encoding="utf-8"?>
<!-- Generator: Adobe Illustrator 21.0.2, SVG Export Plug-In . SVG Version: 6.00 Build 0)  -->
<svg version="1.1" id="Ebene_1" xmlns="http://www.w3.org/2000/svg" xmlns:xlink="http://www.w3.org/1999/xlink" x="0px" y="0px"
	 viewBox="0 0 64 64" style="enable-background:new 0 0 64 64;" xml:space="preserve">
<path d="M28.1,55c-0.6,0-1-0.4-1-1V28c0-0.6,0.4-1,1-1s1,0.4,1,1v26C29.1,54.6,28.6,55,28.1,55z"/>
<path d="M50,26.6c-2.1,0-3.2-0.6-4.1-1.1c-0.9-0.5-1.6-0.9-3.2-0.9c-0.9,0-1.5,0.1-2.2,0.4c-0.5,0.2-1.1,0-1.3-0.6
	c-0.2-0.5,0-1.1,0.6-1.3c0.9-0.4,1.8-0.5,2.9-0.5c2.1,0,3.2,0.6,4.1,1.1c0.9,0.5,1.6,0.9,3.2,0.9c0.6,0,1,0.4,1,1S50.6,26.6,50,26.6
	z"/>
<path d="M18.1,55c-0.6,0-1-0.4-1-1V10c0-0.6,0.4-1,1-1s1,0.4,1,1v44C19.1,54.6,18.6,55,18.1,55z"/>
<path d="M40,28.6c-2.1,0-3.2-0.6-4.1-1.1c-0.9-0.5-1.6-0.9-3.2-0.9c-1.6,0-2.3,0.4-3.2,0.9c-1,0.5-2.1,1.1-4.1,1.1
	c-2.1,0-3.2-0.6-4.1-1.1c-0.9-0.5-1.6-0.9-3.2-0.9c-0.6,0-1-0.4-1-1v-14c0-0.6,0.4-1,1-1c2.1,0,3.2,0.6,4.1,1.1
	c0.9,0.5,1.6,0.9,3.2,0.9c1.6,0,2.3-0.4,3.2-0.9c1-0.5,2.1-1.1,4.1-1.1c2.1,0,3.2,0.6,4.1,1.1c0.9,0.5,1.6,0.9,3.2,0.9
	c0.6,0,1,0.4,1,1v14C41,28.1,40.6,28.6,40,28.6z M19.1,24.6c1.5,0.2,2.3,0.6,3.1,1.1c0.9,0.5,1.6,0.9,3.2,0.9c1.6,0,2.3-0.4,3.2-0.9
	c1-0.5,2.1-1.1,4.1-1.1s3.2,0.6,4.1,1.1c0.7,0.4,1.2,0.7,2.2,0.8v-12c-1.5-0.2-2.3-0.6-3.1-1.1c-0.9-0.5-1.6-0.9-3.2-0.9
	c-1.6,0-2.3,0.4-3.2,0.9c-1,0.5-2.1,1.1-4.1,1.1c-2.1,0-3.2-0.6-4.1-1.1c-0.7-0.4-1.2-0.7-2.2-0.8V24.6z"/>
<path d="M50,33.6c-2.1,0-3.2-0.6-4.1-1.1c-0.9-0.5-1.6-0.9-3.2-0.9c-1.6,0-2.3,0.4-3.2,0.9c-1,0.5-2.1,1.1-4.1,1.1
	c-2.1,0-3.2-0.6-4.1-1.1c-0.9-0.5-1.6-0.9-3.2-0.9c-0.6,0-1-0.4-1-1V27c0-0.4,0.2-0.8,0.6-0.9c0.3-0.1,0.6-0.3,0.9-0.4
	c1-0.5,2.1-1.1,4.1-1.1s3.2,0.6,4.1,1.1c0.7,0.4,1.2,0.7,2.2,0.8v-9.4c0-0.4,0.2-0.8,0.6-0.9c0.9-0.4,1.9-0.6,3.1-0.6
	c2.1,0,3.2,0.6,4.1,1.1c0.9,0.5,1.6,0.9,3.2,0.9c0.6,0,1,0.4,1,1v14C51,33.1,50.6,33.6,50,33.6z M29.1,29.6c1.5,0.2,2.3,0.6,3.1,1.1
	c0.9,0.5,1.6,0.9,3.2,0.9c1.6,0,2.3-0.4,3.2-0.9c1-0.5,2.1-1.1,4.1-1.1c2.1,0,3.2,0.6,4.1,1.1c0.7,0.4,1.2,0.7,2.2,0.8v-12
	c-1.5-0.2-2.3-0.6-3.1-1.1c-0.9-0.5-1.6-0.9-3.2-0.9c-0.7,0-1.3,0.1-1.7,0.2v9.8c0,0.6-0.4,1-1,1c-2.1,0-3.2-0.6-4.1-1.1
	c-0.9-0.5-1.6-0.9-3.2-0.9c-1.6,0-2.3,0.4-3.2,0.9c-0.1,0.1-0.3,0.2-0.4,0.2V29.6z"/>
<path d="M28.6,23c-1.9,0-3.5-1.6-3.5-3.5s1.6-3.5,3.5-3.5s3.5,1.6,3.5,3.5S30.5,23,28.6,23z M28.6,18c-0.8,0-1.5,0.7-1.5,1.5
	s0.7,1.5,1.5,1.5s1.5-0.7,1.5-1.5S29.4,18,28.6,18z"/>
</svg>
