<?xml version="1.0" encoding="utf-8"?>
<!-- Generator: Adobe Illustrator 16.0.3, SVG Export Plug-In . SVG Version: 6.00 Build 0)  -->
<!DOCTYPE svg PUBLIC "-//W3C//DTD SVG 1.1//EN" "http://www.w3.org/Graphics/SVG/1.1/DTD/svg11.dtd">
<svg version="1.1" id="Ebene_1" xmlns="http://www.w3.org/2000/svg" xmlns:xlink="http://www.w3.org/1999/xlink" fill="#b8cbd9" x="0px" y="0px"
	 width="64px" height="64px" viewBox="0 0 64 64" enable-background="new 0 0 64 64" xml:space="preserve">
<path d="M31,50c-8.822,0-16-7.178-16-16c0-6.571,4.119-12.573,10.25-14.935c0.513-0.196,1.094,0.058,1.293,0.574
	c0.198,0.515-0.059,1.094-0.574,1.292C20.604,22.999,17,28.25,17,34c0,7.72,6.28,14,14,14s14-6.28,14-14s-6.28-14-14-14
	c-0.553,0-1-0.448-1-1s0.447-1,1-1c8.822,0,16,7.178,16,16S39.822,50,31,50z"/>
<path d="M29.219,21.332c-1.629,0-3.888-0.316-5.396-1.824c-2.48-2.481-1.722-7.034-1.688-7.227c0.072-0.416,0.398-0.742,0.814-0.814
	c0.031-0.005,0.789-0.135,1.829-0.135c1.63,0,3.89,0.317,5.397,1.825c2.48,2.481,1.723,7.033,1.689,7.226
	c-0.072,0.416-0.398,0.741-0.813,0.814C31.02,21.202,30.261,21.332,29.219,21.332z M24.026,13.358
	c-0.082,1.175-0.056,3.469,1.211,4.736c1.253,1.252,3.549,1.292,4.736,1.211c0.082-1.174,0.055-3.468-1.212-4.735
	C27.51,13.319,25.216,13.275,24.026,13.358z"/>
<path d="M35,30.889c-0.553,0-1-0.448-1-1v-1c0-0.552,0.447-1,1-1s1,0.448,1,1v1C36,30.441,35.553,30.889,35,30.889z"/>
<path d="M39,29.889c-0.553,0-1-0.448-1-1v-1c0-0.552,0.447-1,1-1s1,0.448,1,1v1C40,29.441,39.553,29.889,39,29.889z"/>
<path d="M40,35c-0.553,0-1-0.448-1-1v-1c0-0.552,0.447-1,1-1s1,0.448,1,1v1C41,34.552,40.553,35,40,35z"/>
<path d="M31,25.332c-0.553,0-1-0.448-1-1v-4c0-0.552,0.447-1,1-1s1,0.448,1,1v4C32,24.884,31.553,25.332,31,25.332z"/>
<path d="M31,26.332c-2.243,0-4-1.318-4-3c0-0.552,0.447-1,1-1s1,0.448,1,1c0,0.408,0.779,1,2,1s2-0.592,2-1c0-0.552,0.447-1,1-1
	s1,0.448,1,1C35,25.014,33.243,26.332,31,26.332z"/>
</svg>
